<svg width="30" height="32" viewBox="0 0 30 32" fill="none" xmlns="http://www.w3.org/2000/svg">
<path fill-rule="evenodd" clip-rule="evenodd" d="M16.282 4.21267H22.3448C23.421 4.21267 24.2935 5.08515 24.2935 6.16141C24.2935 7.23766 23.421 8.11015 22.3448 8.11015H16.282C11.8574 8.11015 8.27055 11.697 8.27055 16.1216C8.27055 20.1314 11.2164 23.4532 15.062 24.0408C15.1881 24.0601 15.3152 24.0764 15.4432 24.0897C15.7191 24.1185 15.9991 24.1332 16.2826 24.1332H21.4792L21.5137 24.1331H22.3448C23.421 24.1331 24.2935 25.0056 24.2935 26.0819C24.2935 27.1581 23.421 28.0306 22.3448 28.0306H16.282C9.7049 28.0306 4.37307 22.6988 4.37307 16.1216C4.37307 9.54449 9.7049 4.21267 16.282 4.21267ZM26.7086 22.1913C27.6306 23.2248 28.191 24.5879 28.191 26.0819C28.191 29.3106 25.5736 31.9281 22.3448 31.9281H16.282C7.55238 31.9281 0.475586 24.8513 0.475586 16.1216C0.475586 7.39197 7.55238 0.315186 16.282 0.315186H22.3448C25.5736 0.315186 28.191 2.93263 28.191 6.16141C28.191 7.65543 27.6306 9.01855 26.7085 10.052C28.4122 11.5212 29.4907 13.6955 29.4907 16.1217C29.4907 18.5479 28.4123 20.7222 26.7086 22.1913ZM21.5039 20.2356C23.7647 20.2224 25.5932 18.3856 25.5932 16.1217C25.5932 13.8496 23.7513 12.0077 21.4792 12.0077H16.2826C14.0105 12.0077 12.1686 13.8496 12.1686 16.1217C12.1686 18.214 13.7305 19.9415 15.7519 20.2018C15.9255 20.2241 16.1024 20.2356 16.282 20.2356H21.5039ZM17.7961 16.1225C17.7961 16.9596 17.1175 17.6382 16.2804 17.6382C15.4433 17.6382 14.7647 16.9596 14.7647 16.1225C14.7647 15.2854 15.4433 14.6068 16.2804 14.6068C17.1175 14.6068 17.7961 15.2854 17.7961 16.1225ZM21.4801 17.6382C22.3172 17.6382 22.9958 16.9596 22.9958 16.1225C22.9958 15.2854 22.3172 14.6068 21.4801 14.6068C20.643 14.6068 19.9644 15.2854 19.9644 16.1225C19.9644 16.9596 20.643 17.6382 21.4801 17.6382Z" fill="url(#paint0_linear_179_691)"/>
<defs>
<linearGradient id="paint0_linear_179_691" x1="33.1971" y1="-1.98612" x2="-6.83038" y2="34.1241" gradientUnits="userSpaceOnUse">
<stop stop-color="white"/>
<stop offset="1" stop-color="#F2F2F2"/>
</linearGradient>
</defs>
</svg>
