<svg width="125" height="124" viewBox="0 0 125 124" fill="none" xmlns="http://www.w3.org/2000/svg">
<path d="M43.7299 49.2476C45.0396 49.2476 46.2204 49.4538 47.2722 49.8663C48.3241 50.2685 49.1594 50.8718 49.7782 51.6762C50.3969 52.4805 50.7063 53.4757 50.7063 54.6616C50.7063 55.5795 50.5155 56.3787 50.134 57.0593C49.7627 57.7399 49.2574 58.3381 48.618 58.8537C47.9787 59.359 47.2619 59.8076 46.4679 60.1995C47.3547 60.6326 48.1694 61.1328 48.9119 61.7C49.6648 62.2568 50.268 62.9117 50.7218 63.6645C51.1859 64.4173 51.4179 65.299 51.4179 66.3097C51.4179 67.5781 51.093 68.6764 50.4434 69.6045C49.804 70.5224 48.9119 71.2339 47.7672 71.7392C46.6226 72.2342 45.2871 72.4817 43.7608 72.4817C42.1211 72.4817 40.7238 72.2394 39.5688 71.7547C38.4138 71.27 37.5372 70.5791 36.9391 69.6819C36.3409 68.7744 36.0419 67.6916 36.0419 66.4334C36.0419 65.3919 36.2481 64.4895 36.6606 63.7264C37.0731 62.9633 37.6248 62.3032 38.3158 61.7464C39.017 61.1895 39.7853 60.7203 40.6206 60.3387C39.9091 59.9159 39.2594 59.4415 38.6716 58.9156C38.0838 58.3793 37.6145 57.7657 37.2639 57.0748C36.9236 56.3735 36.7534 55.564 36.7534 54.6462C36.7534 53.4705 37.068 52.4857 37.697 51.6916C38.3261 50.8873 39.1666 50.2788 40.2185 49.8663C41.2806 49.4538 42.4511 49.2476 43.7299 49.2476ZM39.5069 66.2942C39.5069 67.2842 39.8575 68.0989 40.5588 68.7383C41.26 69.3777 42.3067 69.6974 43.6989 69.6974C45.0808 69.6974 46.1327 69.3828 46.8546 68.7538C47.5765 68.1247 47.9374 67.2945 47.9374 66.2633C47.9374 65.6033 47.7518 65.0206 47.3805 64.5153C47.0196 64.01 46.5297 63.5614 45.911 63.1695C45.3025 62.7673 44.6271 62.3961 43.8846 62.0557L43.3896 61.8547C42.5852 62.195 41.8942 62.5817 41.3167 63.0148C40.7392 63.4376 40.2906 63.9172 39.971 64.4534C39.6616 64.9897 39.5069 65.6033 39.5069 66.2942ZM43.6989 52.0474C42.6986 52.0474 41.8736 52.2949 41.2239 52.7899C40.5846 53.2746 40.2649 53.9759 40.2649 54.8937C40.2649 55.5434 40.4196 56.1002 40.7289 56.5643C41.0486 57.0284 41.4766 57.4306 42.0128 57.7709C42.5491 58.1009 43.1421 58.4103 43.7918 58.699C44.4208 58.4206 44.988 58.1164 45.4933 57.7864C46.009 57.446 46.4163 57.0438 46.7154 56.5798C47.0247 56.1054 47.1794 55.5382 47.1794 54.8782C47.1794 53.9707 46.8546 53.2746 46.2049 52.7899C45.5655 52.2949 44.7302 52.0474 43.6989 52.0474ZM69.5474 60.8492C69.5474 62.6745 69.403 64.309 69.1142 65.7528C68.8358 67.1862 68.3924 68.4031 67.7839 69.4034C67.1755 70.4038 66.3814 71.1669 65.4017 71.6928C64.422 72.2188 63.2361 72.4817 61.8439 72.4817C60.1011 72.4817 58.6625 72.0228 57.5281 71.105C56.3937 70.1769 55.5532 68.8466 55.0067 67.1141C54.4601 65.3712 54.1868 63.2829 54.1868 60.8492C54.1868 58.4154 54.4343 56.3323 54.9293 54.5998C55.4346 52.8569 56.2493 51.5215 57.3734 50.5933C58.4975 49.6652 59.9876 49.2011 61.8439 49.2011C63.597 49.2011 65.0408 49.6652 66.1752 50.5933C67.3198 51.5112 68.1655 52.8415 68.712 54.5843C69.2689 56.3168 69.5474 58.4051 69.5474 60.8492ZM57.8529 60.8492C57.8529 62.757 57.9767 64.3503 58.2242 65.629C58.482 66.9078 58.9048 67.8669 59.4926 68.5063C60.0804 69.1353 60.8642 69.4498 61.8439 69.4498C62.8236 69.4498 63.6073 69.1353 64.1951 68.5063C64.783 67.8772 65.2058 66.9233 65.4636 65.6445C65.7317 64.3658 65.8658 62.7673 65.8658 60.8492C65.8658 58.9517 65.7369 57.3635 65.4791 56.0848C65.2212 54.806 64.7984 53.847 64.2106 53.2076C63.6228 52.5579 62.8339 52.233 61.8439 52.233C60.8539 52.233 60.065 52.5579 59.4772 53.2076C58.8996 53.847 58.482 54.806 58.2242 56.0848C57.9767 57.3635 57.8529 58.9517 57.8529 60.8492ZM77.189 49.2321C78.8493 49.2321 80.1074 49.8508 80.9634 51.0883C81.8193 52.3155 82.2473 54.0532 82.2473 56.3013C82.2473 58.5392 81.8348 60.2871 81.0098 61.5453C80.1951 62.8034 78.9215 63.4325 77.189 63.4325C75.5699 63.4325 74.3375 62.8034 73.4919 61.5453C72.6463 60.2871 72.2235 58.5392 72.2235 56.3013C72.2235 54.0532 72.6205 52.3155 73.4146 51.0883C74.2189 49.8508 75.4771 49.2321 77.189 49.2321ZM77.2044 51.769C76.5341 51.769 76.0391 52.1454 75.7194 52.8982C75.41 53.651 75.2554 54.7906 75.2554 56.3168C75.2554 57.8328 75.41 58.9775 75.7194 59.7509C76.0391 60.514 76.5341 60.8956 77.2044 60.8956C77.8851 60.8956 78.3904 60.514 78.7204 59.7509C79.0607 58.9878 79.2308 57.8431 79.2308 56.3168C79.2308 54.8009 79.0658 53.6665 78.7358 52.9137C78.4058 52.1505 77.8954 51.769 77.2044 51.769ZM92.3794 49.5569L79.8341 72.1724H76.8486L89.3939 49.5569H92.3794ZM91.9617 58.2814C93.622 58.2814 94.8802 58.9001 95.7361 60.1376C96.6023 61.3648 97.0355 63.1025 97.0355 65.3506C97.0355 67.5781 96.623 69.3209 95.798 70.5791C94.9833 71.8372 93.7045 72.4663 91.9617 72.4663C90.3426 72.4663 89.1103 71.8372 88.2646 70.5791C87.419 69.3209 86.9962 67.5781 86.9962 65.3506C86.9962 63.1025 87.3932 61.3648 88.1873 60.1376C88.9917 58.9001 90.2498 58.2814 91.9617 58.2814ZM91.9772 60.8182C91.3069 60.8182 90.8118 61.1946 90.4922 61.9475C90.1828 62.7003 90.0281 63.8398 90.0281 65.3661C90.0281 66.882 90.1828 68.0267 90.4922 68.8002C90.8118 69.5633 91.3069 69.9449 91.9772 69.9449C92.6681 69.9449 93.1786 69.5684 93.5086 68.8156C93.8386 68.0525 94.0036 66.9026 94.0036 65.3661C94.0036 63.8501 93.8386 62.7158 93.5086 61.9629C93.1786 61.1998 92.6681 60.8182 91.9772 60.8182Z" fill="#334255"/>
<path d="M124.193 62.1726C124.193 96.2448 96.5719 123.866 62.4998 123.866C28.4276 123.866 0.806641 96.2448 0.806641 62.1726C0.806641 28.1004 28.4276 0.479492 62.4998 0.479492C96.5719 0.479492 124.193 28.1004 124.193 62.1726ZM14.0107 62.1726C14.0107 88.9524 35.72 110.662 62.4998 110.662C89.2795 110.662 110.989 88.9524 110.989 62.1726C110.989 35.3928 89.2795 13.6836 62.4998 13.6836C35.72 13.6836 14.0107 35.3928 14.0107 62.1726Z" fill="#FDEFDE"/>
<path d="M124.193 62.1726C124.193 75.1645 120.091 87.8248 112.473 98.3486C104.855 108.872 94.1087 116.723 81.7666 120.78C69.4246 124.837 56.1166 124.895 43.74 120.944C31.3633 116.994 20.5497 109.237 12.8408 98.779C5.13191 88.3214 0.921194 75.697 0.808943 62.7056C0.696692 49.7142 4.68864 37.019 12.2157 26.4297C19.7427 15.8405 30.4207 7.89774 42.7272 3.73386C55.0338 -0.430015 68.3407 -0.602487 80.7511 3.24103L76.8448 15.854C67.0906 12.8332 56.6317 12.9687 46.9591 16.2414C37.2865 19.5141 28.8939 25.7569 22.9779 34.0797C17.0618 42.4026 13.9243 52.3807 14.0125 62.5916C14.1007 72.8024 17.4102 82.7248 23.4692 90.9442C29.5282 99.1636 38.0274 105.26 47.7551 108.365C57.4828 111.471 67.9425 111.425 77.643 108.236C87.3435 105.047 95.7897 98.8774 101.777 90.6059C107.765 82.3345 110.989 72.3839 110.989 62.1726H124.193Z" fill="url(#paint0_linear_444_94)"/>
<defs>
<linearGradient id="paint0_linear_444_94" x1="124.193" y1="67.8593" x2="0.806641" y2="67.8593" gradientUnits="userSpaceOnUse">
<stop stop-color="#FD9512"/>
<stop offset="1" stop-color="#FFC770"/>
</linearGradient>
</defs>
</svg>
