<svg width="645" height="184" viewBox="0 0 645 184" fill="none" xmlns="http://www.w3.org/2000/svg">
<rect x="0.5" y="0.5" width="643.538" height="182.618" rx="14.5" fill="#FFFCF5" stroke="#D9D9D9"/>
<path d="M145.212 107.404C145.212 119.071 141.941 130.503 135.77 140.404C129.6 150.306 120.777 158.278 110.303 163.417C99.8291 168.556 88.1244 170.655 76.5175 169.477C64.9106 168.299 53.8667 163.889 44.6396 156.75C35.4125 149.611 28.3719 140.028 24.3172 129.088C20.2626 118.149 19.3562 106.292 21.7011 94.8636C24.046 83.4352 29.5482 72.8931 37.583 64.4344C45.6178 55.9756 55.8633 49.9391 67.1562 47.0102L82.8199 107.404H145.212Z" fill="#FFC66E"/>
<path d="M145.212 107.404C145.212 118.766 142.109 129.912 136.239 139.64C130.369 149.368 121.954 157.308 111.901 162.604C101.849 167.9 90.5417 170.35 79.199 169.691C67.8562 169.032 56.9088 165.287 47.538 158.862L82.8199 107.404H145.212Z" fill="#EC6409"/>
<path d="M66.0516 47.3075C77.4707 44.1213 89.5611 44.2544 100.907 47.6912C112.253 51.128 122.385 57.7262 130.117 66.7132C137.849 75.7002 142.86 86.704 144.564 98.4361C146.268 110.168 144.594 122.143 139.739 132.958L82.8199 107.404L66.0516 47.3075Z" fill="#BF4B00"/>
<path d="M46.5402 101.896C46.5402 102.219 46.4751 102.498 46.3448 102.736C46.2146 102.974 46.0356 103.169 45.8077 103.322C45.5831 103.472 45.3227 103.579 45.0265 103.644V103.678C45.5962 103.75 46.0258 103.929 46.3156 104.216C46.6085 104.502 46.755 104.881 46.755 105.353C46.755 105.767 46.6557 106.136 46.4572 106.462C46.2586 106.784 45.9542 107.038 45.5441 107.223C45.1339 107.409 44.6066 107.502 43.962 107.502C43.5747 107.502 43.215 107.471 42.8829 107.409C42.5542 107.347 42.2417 107.248 41.9454 107.111V106.091C42.2482 106.24 42.5704 106.356 42.9122 106.437C43.254 106.519 43.5779 106.559 43.8839 106.559C44.4796 106.559 44.9044 106.449 45.1583 106.227C45.4122 106.003 45.5392 105.693 45.5392 105.3C45.5392 105.046 45.4725 104.837 45.339 104.675C45.2088 104.512 45.0053 104.39 44.7286 104.308C44.4552 104.227 44.102 104.186 43.6691 104.186H43.0392V103.263H43.674C44.0874 103.263 44.4194 103.215 44.67 103.117C44.9207 103.016 45.1014 102.878 45.212 102.702C45.326 102.526 45.3829 102.321 45.3829 102.087C45.3829 101.781 45.2837 101.543 45.0851 101.374C44.8865 101.201 44.5919 101.115 44.2013 101.115C43.9604 101.115 43.7407 101.143 43.5421 101.198C43.3468 101.253 43.1661 101.323 43.0001 101.408C42.8341 101.493 42.6762 101.584 42.5265 101.681L41.9747 100.885C42.2449 100.684 42.5672 100.513 42.9415 100.373C43.3159 100.233 43.7521 100.163 44.2501 100.163C44.9825 100.163 45.5473 100.321 45.9445 100.636C46.3416 100.949 46.5402 101.369 46.5402 101.896ZM50.9763 107.404H49.824V102.809C49.824 102.656 49.8256 102.503 49.8288 102.35C49.8321 102.197 49.8353 102.048 49.8386 101.901C49.8451 101.755 49.8532 101.615 49.863 101.481C49.7947 101.556 49.71 101.637 49.6091 101.725C49.5115 101.813 49.4073 101.904 49.2966 101.999L48.4763 102.653L47.9001 101.926L50.0193 100.265H50.9763V107.404ZM54.7484 100.163C55.2725 100.163 55.6696 100.358 55.9398 100.749C56.21 101.136 56.345 101.685 56.345 102.394C56.345 103.101 56.2148 103.652 55.9544 104.05C55.6973 104.447 55.2952 104.645 54.7484 104.645C54.2373 104.645 53.8483 104.447 53.5814 104.05C53.3144 103.652 53.181 103.101 53.181 102.394C53.181 101.685 53.3063 101.136 53.557 100.749C53.8109 100.358 54.208 100.163 54.7484 100.163ZM54.7532 100.964C54.5417 100.964 54.3854 101.082 54.2845 101.32C54.1868 101.558 54.138 101.917 54.138 102.399C54.138 102.878 54.1868 103.239 54.2845 103.483C54.3854 103.724 54.5417 103.844 54.7532 103.844C54.9681 103.844 55.1276 103.724 55.2318 103.483C55.3392 103.242 55.3929 102.881 55.3929 102.399C55.3929 101.921 55.3408 101.563 55.2366 101.325C55.1325 101.084 54.9713 100.964 54.7532 100.964ZM59.5433 100.265L55.5833 107.404H54.6409L58.6009 100.265H59.5433ZM59.4115 103.019C59.9355 103.019 60.3327 103.215 60.6029 103.605C60.8763 103.993 61.013 104.541 61.013 105.251C61.013 105.954 60.8828 106.504 60.6224 106.901C60.3652 107.298 59.9616 107.497 59.4115 107.497C58.9004 107.497 58.5114 107.298 58.2445 106.901C57.9775 106.504 57.8441 105.954 57.8441 105.251C57.8441 104.541 57.9694 103.993 58.22 103.605C58.474 103.215 58.8711 103.019 59.4115 103.019ZM59.4163 103.82C59.2047 103.82 59.0485 103.939 58.9476 104.177C58.8499 104.414 58.8011 104.774 58.8011 105.256C58.8011 105.734 58.8499 106.095 58.9476 106.34C59.0485 106.58 59.2047 106.701 59.4163 106.701C59.6344 106.701 59.7956 106.582 59.8997 106.344C60.0039 106.104 60.056 105.741 60.056 105.256C60.056 104.777 60.0039 104.419 59.8997 104.181C59.7956 103.941 59.6344 103.82 59.4163 103.82Z" fill="white"/>
<path d="M104.651 81.5117C104.651 81.834 104.586 82.1139 104.456 82.3516C104.326 82.5892 104.147 82.7845 103.919 82.9375C103.694 83.0872 103.434 83.1947 103.138 83.2598V83.2939C103.707 83.3656 104.137 83.5446 104.427 83.8311C104.72 84.1175 104.866 84.4967 104.866 84.9688C104.866 85.3822 104.767 85.7516 104.568 86.0771C104.37 86.3994 104.066 86.6533 103.655 86.8389C103.245 87.0244 102.718 87.1172 102.073 87.1172C101.686 87.1172 101.326 87.0863 100.994 87.0244C100.665 86.9626 100.353 86.8633 100.057 86.7266V85.7061C100.359 85.8558 100.682 85.9714 101.024 86.0527C101.365 86.1341 101.689 86.1748 101.995 86.1748C102.591 86.1748 103.016 86.0641 103.27 85.8428C103.524 85.6182 103.651 85.3089 103.651 84.915C103.651 84.6611 103.584 84.4528 103.45 84.29C103.32 84.1273 103.117 84.0052 102.84 83.9238C102.567 83.8424 102.213 83.8018 101.78 83.8018H101.151V82.8789H101.785C102.199 82.8789 102.531 82.8301 102.781 82.7324C103.032 82.6315 103.213 82.4932 103.323 82.3174C103.437 82.1416 103.494 81.9365 103.494 81.7021C103.494 81.3962 103.395 81.1585 103.196 80.9893C102.998 80.8167 102.703 80.7305 102.313 80.7305C102.072 80.7305 101.852 80.7581 101.653 80.8135C101.458 80.8688 101.277 80.9388 101.111 81.0234C100.945 81.1081 100.788 81.1992 100.638 81.2969L100.086 80.501C100.356 80.2992 100.679 80.1283 101.053 79.9883C101.427 79.8483 101.863 79.7783 102.361 79.7783C103.094 79.7783 103.659 79.9362 104.056 80.252C104.453 80.5645 104.651 80.9844 104.651 81.5117ZM105.723 83.9775C105.723 83.5576 105.753 83.1442 105.811 82.7373C105.873 82.3304 105.977 81.9495 106.124 81.5947C106.27 81.2399 106.472 80.9274 106.729 80.6572C106.99 80.387 107.317 80.1755 107.711 80.0225C108.105 79.8662 108.578 79.7881 109.132 79.7881C109.275 79.7881 109.436 79.7946 109.615 79.8076C109.794 79.8206 109.942 79.8418 110.059 79.8711V80.8232C109.932 80.7874 109.792 80.7598 109.639 80.7402C109.49 80.7207 109.34 80.7109 109.19 80.7109C108.591 80.7109 108.124 80.8249 107.789 81.0527C107.454 81.2773 107.214 81.5866 107.071 81.9805C106.928 82.3711 106.845 82.8187 106.822 83.3232H106.881C106.978 83.1605 107.1 83.0156 107.247 82.8887C107.393 82.7617 107.572 82.6608 107.784 82.5859C107.995 82.5078 108.241 82.4688 108.521 82.4688C108.938 82.4688 109.301 82.5566 109.61 82.7324C109.919 82.9049 110.157 83.1556 110.323 83.4844C110.492 83.8132 110.577 84.2119 110.577 84.6807C110.577 85.1852 110.481 85.6198 110.289 85.9844C110.1 86.349 109.83 86.6289 109.478 86.8242C109.13 87.0195 108.715 87.1172 108.233 87.1172C107.878 87.1172 107.548 87.0521 107.242 86.9219C106.939 86.7917 106.674 86.5964 106.446 86.3359C106.218 86.0755 106.041 85.75 105.914 85.3594C105.787 84.9655 105.723 84.5049 105.723 83.9775ZM108.214 86.1699C108.585 86.1699 108.883 86.0495 109.107 85.8086C109.335 85.5645 109.449 85.1917 109.449 84.6904C109.449 84.2835 109.348 83.9613 109.146 83.7236C108.948 83.486 108.648 83.3672 108.248 83.3672C107.974 83.3672 107.735 83.4258 107.53 83.543C107.325 83.6602 107.165 83.8083 107.051 83.9873C106.941 84.1663 106.885 84.3486 106.885 84.5342C106.885 84.723 106.913 84.9134 106.968 85.1055C107.024 85.2975 107.107 85.4749 107.218 85.6377C107.328 85.7972 107.467 85.9258 107.633 86.0234C107.799 86.1211 107.992 86.1699 108.214 86.1699ZM112.86 79.7783C113.384 79.7783 113.781 79.9736 114.051 80.3643C114.321 80.7516 114.456 81.3001 114.456 82.0098C114.456 82.7161 114.326 83.2679 114.066 83.665C113.809 84.0622 113.407 84.2607 112.86 84.2607C112.349 84.2607 111.96 84.0622 111.693 83.665C111.426 83.2679 111.292 82.7161 111.292 82.0098C111.292 81.3001 111.418 80.7516 111.668 80.3643C111.922 79.9736 112.319 79.7783 112.86 79.7783ZM112.865 80.5791C112.653 80.5791 112.497 80.6979 112.396 80.9355C112.298 81.1732 112.249 81.5329 112.249 82.0146C112.249 82.4932 112.298 82.8545 112.396 83.0986C112.497 83.3395 112.653 83.46 112.865 83.46C113.079 83.46 113.239 83.3395 113.343 83.0986C113.451 82.8577 113.504 82.4964 113.504 82.0146C113.504 81.5361 113.452 81.1781 113.348 80.9404C113.244 80.6995 113.083 80.5791 112.865 80.5791ZM117.655 79.8809L113.695 87.0195H112.752L116.712 79.8809H117.655ZM117.523 82.6348C118.047 82.6348 118.444 82.8301 118.714 83.2207C118.988 83.6081 119.124 84.1566 119.124 84.8662C119.124 85.5693 118.994 86.1195 118.734 86.5166C118.477 86.9137 118.073 87.1123 117.523 87.1123C117.012 87.1123 116.623 86.9137 116.356 86.5166C116.089 86.1195 115.955 85.5693 115.955 84.8662C115.955 84.1566 116.081 83.6081 116.331 83.2207C116.585 82.8301 116.982 82.6348 117.523 82.6348ZM117.528 83.4355C117.316 83.4355 117.16 83.5544 117.059 83.792C116.961 84.0296 116.912 84.3893 116.912 84.8711C116.912 85.3496 116.961 85.7109 117.059 85.9551C117.16 86.196 117.316 86.3164 117.528 86.3164C117.746 86.3164 117.907 86.1976 118.011 85.96C118.115 85.7191 118.167 85.3561 118.167 84.8711C118.167 84.3926 118.115 84.0345 118.011 83.7969C117.907 83.556 117.746 83.4355 117.528 83.4355Z" fill="white"/>
<path d="M87.8297 139.623C87.8297 139.945 87.7646 140.225 87.6344 140.463C87.5042 140.7 87.3252 140.896 87.0973 141.049C86.8727 141.198 86.6123 141.306 86.316 141.371V141.405C86.8857 141.477 87.3154 141.656 87.6051 141.942C87.8981 142.229 88.0446 142.608 88.0446 143.08C88.0446 143.493 87.9453 143.863 87.7467 144.188C87.5481 144.51 87.2438 144.764 86.8336 144.95C86.4235 145.135 85.8961 145.228 85.2516 145.228C84.8642 145.228 84.5045 145.197 84.1725 145.135C83.8437 145.074 83.5312 144.974 83.235 144.838V143.817C83.5377 143.967 83.86 144.082 84.2018 144.164C84.5436 144.245 84.8675 144.286 85.1735 144.286C85.7692 144.286 86.194 144.175 86.4479 143.954C86.7018 143.729 86.8287 143.42 86.8287 143.026C86.8287 142.772 86.762 142.564 86.6285 142.401C86.4983 142.238 86.2949 142.116 86.0182 142.035C85.7448 141.954 85.3916 141.913 84.9586 141.913H84.3287V140.99H84.9635C85.3769 140.99 85.7089 140.941 85.9596 140.844C86.2102 140.743 86.3909 140.604 86.5016 140.428C86.6155 140.253 86.6725 140.048 86.6725 139.813C86.6725 139.507 86.5732 139.27 86.3746 139.1C86.1761 138.928 85.8815 138.842 85.4908 138.842C85.25 138.842 85.0302 138.869 84.8317 138.925C84.6364 138.98 84.4557 139.05 84.2897 139.135C84.1237 139.219 83.9658 139.31 83.816 139.408L83.2643 138.612C83.5345 138.41 83.8567 138.239 84.2311 138.099C84.6054 137.959 85.0416 137.889 85.5397 137.889C86.2721 137.889 86.8369 138.047 87.234 138.363C87.6311 138.676 87.8297 139.095 87.8297 139.623ZM93.4524 139.623C93.4524 139.945 93.3873 140.225 93.2571 140.463C93.1268 140.7 92.9478 140.896 92.7199 141.049C92.4953 141.198 92.2349 141.306 91.9387 141.371V141.405C92.5084 141.477 92.938 141.656 93.2278 141.942C93.5207 142.229 93.6672 142.608 93.6672 143.08C93.6672 143.493 93.5679 143.863 93.3694 144.188C93.1708 144.51 92.8664 144.764 92.4563 144.95C92.0461 145.135 91.5188 145.228 90.8742 145.228C90.4869 145.228 90.1272 145.197 89.7951 145.135C89.4664 145.074 89.1539 144.974 88.8576 144.838V143.817C89.1604 143.967 89.4826 144.082 89.8244 144.164C90.1662 144.245 90.4901 144.286 90.7961 144.286C91.3918 144.286 91.8166 144.175 92.0705 143.954C92.3244 143.729 92.4514 143.42 92.4514 143.026C92.4514 142.772 92.3847 142.564 92.2512 142.401C92.121 142.238 91.9175 142.116 91.6408 142.035C91.3674 141.954 91.0142 141.913 90.5813 141.913H89.9514V140.99H90.5862C90.9996 140.99 91.3316 140.941 91.5823 140.844C91.8329 140.743 92.0136 140.604 92.1242 140.428C92.2382 140.253 92.2951 140.048 92.2951 139.813C92.2951 139.507 92.1959 139.27 91.9973 139.1C91.7987 138.928 91.5041 138.842 91.1135 138.842C90.8726 138.842 90.6529 138.869 90.4543 138.925C90.259 138.98 90.0783 139.05 89.9123 139.135C89.7463 139.219 89.5884 139.31 89.4387 139.408L88.8869 138.612C89.1571 138.41 89.4794 138.239 89.8537 138.099C90.2281 137.959 90.6643 137.889 91.1623 137.889C91.8948 137.889 92.4595 138.047 92.8567 138.363C93.2538 138.676 93.4524 139.095 93.4524 139.623ZM96.0379 137.889C96.562 137.889 96.9591 138.085 97.2293 138.475C97.4995 138.863 97.6346 139.411 97.6346 140.121C97.6346 140.827 97.5044 141.379 97.244 141.776C96.9868 142.173 96.5848 142.372 96.0379 142.372C95.5268 142.372 95.1379 142.173 94.8709 141.776C94.604 141.379 94.4705 140.827 94.4705 140.121C94.4705 139.411 94.5959 138.863 94.8465 138.475C95.1004 138.085 95.4976 137.889 96.0379 137.889ZM96.0428 138.69C95.8312 138.69 95.675 138.809 95.574 139.047C95.4764 139.284 95.4276 139.644 95.4276 140.126C95.4276 140.604 95.4764 140.966 95.574 141.21C95.675 141.451 95.8312 141.571 96.0428 141.571C96.2576 141.571 96.4171 141.451 96.5213 141.21C96.6287 140.969 96.6824 140.608 96.6824 140.126C96.6824 139.647 96.6304 139.289 96.5262 139.052C96.422 138.811 96.2609 138.69 96.0428 138.69ZM100.833 137.992L96.8729 145.131H95.9305L99.8905 137.992H100.833ZM100.701 140.746C101.225 140.746 101.622 140.941 101.892 141.332C102.166 141.719 102.303 142.268 102.303 142.977C102.303 143.68 102.172 144.231 101.912 144.628C101.655 145.025 101.251 145.223 100.701 145.223C100.19 145.223 99.8009 145.025 99.534 144.628C99.2671 144.231 99.1336 143.68 99.1336 142.977C99.1336 142.268 99.2589 141.719 99.5096 141.332C99.7635 140.941 100.161 140.746 100.701 140.746ZM100.706 141.547C100.494 141.547 100.338 141.665 100.237 141.903C100.139 142.141 100.091 142.5 100.091 142.982C100.091 143.461 100.139 143.822 100.237 144.066C100.338 144.307 100.494 144.427 100.706 144.427C100.924 144.427 101.085 144.309 101.189 144.071C101.293 143.83 101.346 143.467 101.346 142.982C101.346 142.504 101.293 142.146 101.189 141.908C101.085 141.667 100.924 141.547 100.706 141.547Z" fill="white"/>
<path d="M31.7876 22.7206C31.7876 23.4506 31.6079 24.0796 31.2484 24.6075C30.8946 25.1354 30.3836 25.5397 29.7153 25.8205C29.0527 26.1013 28.2608 26.2417 27.3398 26.2417C26.8906 26.2417 26.4609 26.2164 26.051 26.1659C25.641 26.1154 25.2535 26.0424 24.8885 25.9469C24.5291 25.8458 24.2006 25.7251 23.9029 25.5847V23.6809C24.4027 23.8999 24.9615 24.0993 25.5793 24.279C26.197 24.4531 26.826 24.5401 27.4662 24.5401C27.9885 24.5401 28.4209 24.4727 28.7634 24.3379C29.1116 24.1976 29.3699 24.001 29.5384 23.7483C29.7069 23.49 29.7911 23.1895 29.7911 22.8469C29.7911 22.4819 29.6929 22.173 29.4963 21.9203C29.2997 21.6676 29.0021 21.4374 28.6034 21.2296C28.2103 21.0162 27.7161 20.7887 27.1208 20.5473C26.7165 20.3844 26.329 20.1991 25.9583 19.9913C25.5933 19.7835 25.2676 19.5392 24.9812 19.2584C24.6948 18.9776 24.4673 18.6463 24.2988 18.2644C24.136 17.8769 24.0546 17.422 24.0546 16.8998C24.0546 16.2034 24.2202 15.6081 24.5516 15.1139C24.8885 14.6197 25.3602 14.2407 25.9667 13.9767C26.5789 13.7128 27.2921 13.5808 28.1064 13.5808C28.7522 13.5808 29.3587 13.6482 29.9259 13.783C30.4987 13.9177 31.0603 14.1087 31.6107 14.3558L30.9705 15.9816C30.465 15.7738 29.9737 15.6081 29.4963 15.4846C29.0246 15.361 28.5416 15.2992 28.0474 15.2992C27.6206 15.2992 27.2584 15.3638 26.9608 15.493C26.6631 15.6222 26.4357 15.8047 26.2784 16.0405C26.1268 16.2708 26.051 16.546 26.051 16.8661C26.051 17.2255 26.138 17.5287 26.3121 17.7758C26.4918 18.0173 26.767 18.2391 27.1376 18.4413C27.5139 18.6435 27.9969 18.8681 28.5865 19.1152C29.2661 19.396 29.8417 19.6908 30.3134 19.9997C30.7908 20.3086 31.1558 20.6792 31.4085 21.1116C31.6612 21.5384 31.7876 22.0748 31.7876 22.7206ZM37.259 24.6412C37.5173 24.6412 37.7728 24.6187 38.0255 24.5738C38.2782 24.5233 38.5085 24.4643 38.7163 24.3969V25.8963C38.4973 25.9918 38.2137 26.0732 37.8655 26.1406C37.5173 26.208 37.1551 26.2417 36.7788 26.2417C36.2509 26.2417 35.7764 26.1547 35.3552 25.9806C34.934 25.8009 34.5999 25.4948 34.3528 25.0624C34.1057 24.63 33.9821 24.0319 33.9821 23.2681V18.256H32.7101V17.3715L34.0748 16.6723L34.7234 14.6759H35.9701V16.7481H38.6405V18.256H35.9701V23.2429C35.9701 23.7146 36.0881 24.0656 36.3239 24.2958C36.5598 24.5261 36.8715 24.6412 37.259 24.6412ZM48.568 16.7481V26.0732H47.0097L46.7401 24.8181H46.6306C46.434 25.1382 46.1841 25.405 45.8809 25.6184C45.5776 25.8261 45.2407 25.9806 44.87 26.0817C44.4994 26.1884 44.1091 26.2417 43.6991 26.2417C42.9971 26.2417 42.3962 26.1238 41.8964 25.8879C41.4022 25.6464 41.0232 25.2758 40.7592 24.776C40.4953 24.2762 40.3633 23.6304 40.3633 22.8385V16.7481H42.3513V22.4679C42.3513 23.1923 42.4973 23.7342 42.7893 24.0937C43.087 24.4531 43.5475 24.6328 44.1708 24.6328C44.7717 24.6328 45.2491 24.5092 45.6029 24.2621C45.9567 24.015 46.2066 23.65 46.3526 23.167C46.5042 22.6841 46.58 22.0916 46.58 21.3896V16.7481H48.568ZM54.368 26.2417C53.256 26.2417 52.3631 25.8374 51.6892 25.0287C51.0209 24.2144 50.6868 23.0154 50.6868 21.4317C50.6868 19.8312 51.0266 18.621 51.7061 17.8011C52.3912 16.9812 53.2925 16.5712 54.4101 16.5712C54.8818 16.5712 55.2946 16.6358 55.6484 16.765C56.0022 16.8885 56.3054 17.057 56.5582 17.2704C56.8165 17.4838 57.0355 17.7225 57.2152 17.9864H57.3079C57.2798 17.8123 57.2461 17.5624 57.2068 17.2367C57.1731 16.9054 57.1562 16.5993 57.1562 16.3185V12.9659H59.1443V26.0732H57.5943L57.2405 24.8013H57.1562C56.9878 25.0708 56.7744 25.3151 56.516 25.5341C56.2633 25.7475 55.9601 25.9188 55.6063 26.048C55.2581 26.1771 54.8453 26.2417 54.368 26.2417ZM54.9239 24.6328C55.7719 24.6328 56.37 24.3885 56.7182 23.8999C57.0664 23.4113 57.2461 22.6785 57.2573 21.7013V21.4402C57.2573 20.3956 57.0889 19.5954 56.7519 19.0394C56.415 18.4778 55.8 18.197 54.9071 18.197C54.1939 18.197 53.6492 18.4862 53.2729 19.0647C52.9022 19.6375 52.7169 20.4377 52.7169 21.4654C52.7169 22.4931 52.9022 23.2794 53.2729 23.8241C53.6492 24.3632 54.1995 24.6328 54.9239 24.6328ZM65.5254 16.5712C66.3566 16.5712 67.0698 16.7425 67.6651 17.0851C68.2603 17.4277 68.718 17.9134 69.0381 18.5424C69.3582 19.1714 69.5183 19.9239 69.5183 20.8V21.8614H63.2931C63.3156 22.7655 63.5571 23.4619 64.0176 23.9505C64.4837 24.439 65.1351 24.6833 65.9719 24.6833C66.5672 24.6833 67.1007 24.6272 67.5724 24.5148C68.0498 24.3969 68.5411 24.2256 69.0466 24.001V25.6099C68.5804 25.829 68.1059 25.989 67.6229 26.0901C67.14 26.1912 66.5616 26.2417 65.8877 26.2417C64.9723 26.2417 64.1664 26.0648 63.47 25.711C62.7793 25.3516 62.2374 24.8181 61.8442 24.1105C61.4567 23.4029 61.263 22.524 61.263 21.4739C61.263 20.4293 61.4399 19.542 61.7937 18.812C62.1475 18.0819 62.6445 17.5259 63.2847 17.1441C63.9249 16.7622 64.6718 16.5712 65.5254 16.5712ZM65.5254 18.0622C64.9021 18.0622 64.3966 18.2644 64.0092 18.6688C63.6273 19.0731 63.4026 19.6656 63.3352 20.4462H67.5808C67.5752 19.9801 67.4966 19.5673 67.345 19.2079C67.199 18.8485 66.9743 18.5677 66.6711 18.3655C66.3734 18.1633 65.9915 18.0622 65.5254 18.0622ZM76.4386 16.5712C77.4887 16.5712 78.3059 16.8436 78.8899 17.3883C79.4796 17.9275 79.7744 18.7951 79.7744 19.9913V26.0732H77.7948V20.3619C77.7948 19.6375 77.646 19.0956 77.3484 18.7361C77.0507 18.3711 76.5902 18.1886 75.9669 18.1886C75.0627 18.1886 74.4337 18.4666 74.0799 19.0225C73.7317 19.5785 73.5577 20.3844 73.5577 21.4402V26.0732H71.5781V16.7481H73.1196L73.3976 18.0117H73.5071C73.7093 17.686 73.9592 17.4192 74.2568 17.2114C74.5601 16.998 74.897 16.838 75.2677 16.7313C75.6439 16.6246 76.0342 16.5712 76.4386 16.5712ZM85.8439 24.6412C86.1022 24.6412 86.3577 24.6187 86.6105 24.5738C86.8632 24.5233 87.0934 24.4643 87.3012 24.3969V25.8963C87.0822 25.9918 86.7986 26.0732 86.4504 26.1406C86.1022 26.208 85.74 26.2417 85.3637 26.2417C84.8358 26.2417 84.3613 26.1547 83.9401 25.9806C83.5189 25.8009 83.1848 25.4948 82.9377 25.0624C82.6906 24.63 82.567 24.0319 82.567 23.2681V18.256H81.2951V17.3715L82.6597 16.6723L83.3083 14.6759H84.5551V16.7481H87.2254V18.256H84.5551V23.2429C84.5551 23.7146 84.673 24.0656 84.9088 24.2958C85.1447 24.5261 85.4564 24.6412 85.8439 24.6412ZM97.1152 13.7577C98.7045 13.7577 99.8642 14.0834 100.594 14.7349C101.324 15.3863 101.689 16.2989 101.689 17.4726C101.689 18.0061 101.605 18.5143 101.437 18.9973C101.274 19.4746 101.004 19.8986 100.628 20.2693C100.252 20.6343 99.7547 20.9235 99.1369 21.1369C98.5248 21.3503 97.7695 21.457 96.8709 21.457H95.5568V26.0732H93.5351V13.7577H97.1152ZM96.9804 15.434H95.5568V19.7723H96.6603C97.2949 19.7723 97.8341 19.6993 98.2777 19.5532C98.7214 19.4016 99.0583 19.1629 99.2886 18.8372C99.5188 18.5115 99.6339 18.0819 99.6339 17.5484C99.6339 16.8352 99.4177 16.3045 98.9853 15.9563C98.5585 15.6081 97.8902 15.434 96.9804 15.434ZM107.489 16.5712C108.32 16.5712 109.034 16.7425 109.629 17.0851C110.224 17.4277 110.682 17.9134 111.002 18.5424C111.322 19.1714 111.482 19.9239 111.482 20.8V21.8614H105.257C105.279 22.7655 105.521 23.4619 105.981 23.9505C106.448 24.439 107.099 24.6833 107.936 24.6833C108.531 24.6833 109.065 24.6272 109.536 24.5148C110.014 24.3969 110.505 24.2256 111.01 24.001V25.6099C110.544 25.829 110.07 25.989 109.587 26.0901C109.104 26.1912 108.525 26.2417 107.851 26.2417C106.936 26.2417 106.13 26.0648 105.434 25.711C104.743 25.3516 104.201 24.8181 103.808 24.1105C103.421 23.4029 103.227 22.524 103.227 21.4739C103.227 20.4293 103.404 19.542 103.758 18.812C104.111 18.0819 104.608 17.5259 105.249 17.1441C105.889 16.7622 106.636 16.5712 107.489 16.5712ZM107.489 18.0622C106.866 18.0622 106.36 18.2644 105.973 18.6688C105.591 19.0731 105.366 19.6656 105.299 20.4462H109.545C109.539 19.9801 109.46 19.5673 109.309 19.2079C109.163 18.8485 108.938 18.5677 108.635 18.3655C108.337 18.1633 107.955 18.0622 107.489 18.0622ZM118.268 16.5712C118.425 16.5712 118.596 16.5797 118.781 16.5965C118.967 16.6134 119.127 16.6358 119.262 16.6639L119.076 18.5171C118.958 18.4834 118.812 18.4582 118.638 18.4413C118.47 18.4245 118.318 18.416 118.183 18.416C117.83 18.416 117.493 18.475 117.173 18.5929C116.852 18.7053 116.569 18.8793 116.322 19.1152C116.075 19.3455 115.881 19.6347 115.741 19.9829C115.6 20.331 115.53 20.7354 115.53 21.1959V26.0732H113.542V16.7481H115.092L115.361 18.3908H115.454C115.639 18.0594 115.87 17.7562 116.145 17.481C116.42 17.2058 116.735 16.9868 117.088 16.8239C117.448 16.6555 117.841 16.5712 118.268 16.5712ZM125.474 18.256H123.208V26.0732H121.229V18.256H119.704V17.3041L121.229 16.7229V16.0742C121.229 15.2824 121.352 14.6534 121.599 14.1873C121.852 13.7212 122.212 13.3871 122.678 13.1849C123.149 12.9771 123.711 12.8732 124.362 12.8732C124.789 12.8732 125.18 12.9097 125.533 12.9827C125.887 13.0501 126.185 13.1287 126.426 13.2186L125.912 14.718C125.721 14.6562 125.508 14.6001 125.272 14.5495C125.036 14.4934 124.784 14.4653 124.514 14.4653C124.065 14.4653 123.733 14.6057 123.52 14.8865C123.312 15.1673 123.208 15.5772 123.208 16.1164V16.7481H125.474V18.256ZM135.149 21.3896C135.149 22.1646 135.048 22.8526 134.846 23.4535C134.644 24.0543 134.349 24.5626 133.961 24.9782C133.574 25.3881 133.108 25.7026 132.563 25.9216C132.018 26.135 131.403 26.2417 130.718 26.2417C130.078 26.2417 129.491 26.135 128.958 25.9216C128.424 25.7026 127.961 25.3881 127.568 24.9782C127.18 24.5626 126.88 24.0543 126.666 23.4535C126.453 22.8526 126.346 22.1646 126.346 21.3896C126.346 20.3619 126.523 19.4915 126.877 18.7783C127.236 18.0594 127.748 17.5119 128.41 17.1356C129.073 16.7594 129.862 16.5712 130.777 16.5712C131.636 16.5712 132.395 16.7594 133.052 17.1356C133.709 17.5119 134.223 18.0594 134.593 18.7783C134.964 19.4971 135.149 20.3675 135.149 21.3896ZM128.385 21.3896C128.385 22.0691 128.466 22.6504 128.629 23.1333C128.798 23.6163 129.056 23.987 129.404 24.2453C129.752 24.498 130.202 24.6244 130.752 24.6244C131.302 24.6244 131.752 24.498 132.1 24.2453C132.448 23.987 132.704 23.6163 132.866 23.1333C133.029 22.6504 133.111 22.0691 133.111 21.3896C133.111 20.7101 133.029 20.1345 132.866 19.6628C132.704 19.1854 132.448 18.8232 132.1 18.5761C131.752 18.3234 131.3 18.197 130.744 18.197C129.924 18.197 129.326 18.4722 128.949 19.0225C128.573 19.5729 128.385 20.3619 128.385 21.3896ZM141.977 16.5712C142.134 16.5712 142.305 16.5797 142.491 16.5965C142.676 16.6134 142.836 16.6358 142.971 16.6639L142.786 18.5171C142.668 18.4834 142.522 18.4582 142.347 18.4413C142.179 18.4245 142.027 18.416 141.893 18.416C141.539 18.416 141.202 18.475 140.882 18.5929C140.562 18.7053 140.278 18.8793 140.031 19.1152C139.784 19.3455 139.59 19.6347 139.45 19.9829C139.309 20.331 139.239 20.7354 139.239 21.1959V26.0732H137.251V16.7481H138.801L139.071 18.3908H139.163C139.349 18.0594 139.579 17.7562 139.854 17.481C140.129 17.2058 140.444 16.9868 140.798 16.8239C141.157 16.6555 141.55 16.5712 141.977 16.5712ZM155.063 16.5712C156.108 16.5712 156.894 16.8408 157.422 17.3799C157.955 17.919 158.222 18.7839 158.222 19.9744V26.0732H156.243V20.3282C156.243 19.6206 156.105 19.0871 155.83 18.7277C155.555 18.3683 155.136 18.1886 154.575 18.1886C153.789 18.1886 153.221 18.4413 152.873 18.9467C152.531 19.4465 152.359 20.1738 152.359 21.1285V26.0732H150.38V20.3282C150.38 19.8565 150.318 19.4634 150.194 19.1489C150.076 18.8288 149.894 18.5901 149.647 18.4329C149.4 18.27 149.088 18.1886 148.712 18.1886C148.167 18.1886 147.732 18.3121 147.406 18.5592C147.086 18.8063 146.856 19.1714 146.715 19.6543C146.575 20.1317 146.505 20.7185 146.505 21.4149V26.0732H144.525V16.7481H146.067L146.345 18.0033H146.454C146.645 17.6776 146.881 17.4108 147.162 17.203C147.448 16.9896 147.766 16.8324 148.114 16.7313C148.462 16.6246 148.824 16.5712 149.2 16.5712C149.897 16.5712 150.484 16.6948 150.961 16.9419C151.438 17.1834 151.795 17.554 152.031 18.0538H152.182C152.474 17.5484 152.882 17.1749 153.404 16.9335C153.926 16.692 154.479 16.5712 155.063 16.5712ZM164.469 16.5712C165.648 16.5712 166.538 16.8324 167.139 17.3546C167.745 17.8769 168.049 18.6912 168.049 19.7975V26.0732H166.642L166.263 24.7507H166.196C165.932 25.0877 165.659 25.3656 165.378 25.5847C165.098 25.8037 164.772 25.9665 164.401 26.0732C164.036 26.1856 163.59 26.2417 163.062 26.2417C162.506 26.2417 162.009 26.1406 161.571 25.9385C161.133 25.7307 160.787 25.4162 160.535 24.995C160.282 24.5738 160.156 24.0403 160.156 23.3945C160.156 22.4342 160.512 21.7125 161.225 21.2296C161.944 20.7466 163.028 20.4799 164.477 20.4293L166.094 20.3704V19.8818C166.094 19.236 165.943 18.7755 165.64 18.5003C165.342 18.2251 164.921 18.0875 164.376 18.0875C163.91 18.0875 163.458 18.1549 163.02 18.2897C162.582 18.4245 162.155 18.5901 161.739 18.7867L161.099 17.3883C161.554 17.1469 162.071 16.9503 162.649 16.7987C163.233 16.647 163.84 16.5712 164.469 16.5712ZM166.086 21.6171L164.881 21.6592C163.893 21.6929 163.199 21.8614 162.801 22.1646C162.402 22.4679 162.203 22.8834 162.203 23.4113C162.203 23.8718 162.34 24.2088 162.615 24.4222C162.891 24.63 163.253 24.7339 163.702 24.7339C164.387 24.7339 164.954 24.5401 165.404 24.1526C165.859 23.7595 166.086 23.1839 166.086 22.4258V21.6171ZM175.508 16.5712C176.558 16.5712 177.375 16.8436 177.959 17.3883C178.549 17.9275 178.844 18.7951 178.844 19.9913V26.0732H176.864V20.3619C176.864 19.6375 176.716 19.0956 176.418 18.7361C176.12 18.3711 175.66 18.1886 175.036 18.1886C174.132 18.1886 173.503 18.4666 173.149 19.0225C172.801 19.5785 172.627 20.3844 172.627 21.4402V26.0732H170.648V16.7481H172.189L172.467 18.0117H172.577C172.779 17.686 173.029 17.4192 173.326 17.2114C173.63 16.998 173.967 16.838 174.337 16.7313C174.714 16.6246 175.104 16.5712 175.508 16.5712ZM185.2 26.2417C184.318 26.2417 183.554 26.0704 182.909 25.7279C182.263 25.3853 181.766 24.8602 181.418 24.1526C181.069 23.445 180.895 22.5465 180.895 21.457C180.895 20.3226 181.086 19.396 181.468 18.6772C181.85 17.9583 182.378 17.4277 183.052 17.0851C183.731 16.7425 184.509 16.5712 185.385 16.5712C185.941 16.5712 186.444 16.6274 186.893 16.7397C187.348 16.8464 187.733 16.9784 188.047 17.1356L187.457 18.7193C187.115 18.5789 186.764 18.461 186.404 18.3655C186.045 18.27 185.7 18.2223 185.368 18.2223C184.824 18.2223 184.369 18.343 184.004 18.5845C183.644 18.826 183.375 19.1854 183.195 19.6628C183.021 20.1401 182.934 20.7326 182.934 21.4402C182.934 22.1253 183.024 22.7037 183.203 23.1755C183.383 23.6416 183.65 23.9954 184.004 24.2369C184.357 24.4727 184.793 24.5907 185.309 24.5907C185.82 24.5907 186.278 24.5289 186.682 24.4053C187.087 24.2818 187.469 24.1217 187.828 23.9252V25.6436C187.474 25.8458 187.095 25.9946 186.691 26.0901C186.287 26.1912 185.79 26.2417 185.2 26.2417ZM193.561 16.5712C194.392 16.5712 195.105 16.7425 195.7 17.0851C196.296 17.4277 196.753 17.9134 197.073 18.5424C197.393 19.1714 197.553 19.9239 197.553 20.8V21.8614H191.328C191.351 22.7655 191.592 23.4619 192.053 23.9505C192.519 24.439 193.17 24.6833 194.007 24.6833C194.602 24.6833 195.136 24.6272 195.608 24.5148C196.085 24.3969 196.576 24.2256 197.082 24.001V25.6099C196.616 25.829 196.141 25.989 195.658 26.0901C195.175 26.1912 194.597 26.2417 193.923 26.2417C193.007 26.2417 192.202 26.0648 191.505 25.711C190.814 25.3516 190.273 24.8181 189.879 24.1105C189.492 23.4029 189.298 22.524 189.298 21.4739C189.298 20.4293 189.475 19.542 189.829 18.812C190.183 18.0819 190.68 17.5259 191.32 17.1441C191.96 16.7622 192.707 16.5712 193.561 16.5712ZM193.561 18.0622C192.937 18.0622 192.432 18.2644 192.044 18.6688C191.662 19.0731 191.438 19.6656 191.37 20.4462H195.616C195.61 19.9801 195.532 19.5673 195.38 19.2079C195.234 18.8485 195.009 18.5677 194.706 18.3655C194.409 18.1633 194.027 18.0622 193.561 18.0622Z" fill="black"/>
<rect width="16.5657" height="204.418" rx="2" transform="matrix(1.39412e-08 -1 -1 -1.02002e-08 549.4 91.7704)" fill="#F3EBDF"/>
<rect width="16.5657" height="204.418" rx="2" transform="matrix(1.39412e-08 -1 -1 -1.02002e-08 549.4 122.725)" fill="#F3EBDF"/>
<rect width="16.5657" height="204.418" rx="2" transform="matrix(1.39412e-08 -1 -1 -1.02002e-08 549.4 152.008)" fill="#F3EBDF"/>
<rect width="16.5657" height="116.515" rx="2" transform="matrix(1.19249e-08 -1 -1 -1.19249e-08 404.84 91.7704)" fill="url(#paint0_linear_402_135)"/>
<rect width="16.5657" height="196.574" rx="2" transform="matrix(7.1257e-09 -1 -1 -1.99563e-08 484.899 152.246)" fill="#BF4B00"/>
<rect x="288.326" y="122.008" width="16.5657" height="159.004" rx="2" transform="rotate(-90 288.326 122.008)" fill="url(#paint1_linear_402_135)"/>
<path d="M591.87 116.442H591.079V111.384C591.079 111.192 591.079 111.027 591.079 110.891C591.082 110.751 591.085 110.624 591.089 110.51C591.095 110.393 591.103 110.274 591.113 110.153C591.012 110.257 590.918 110.347 590.83 110.422C590.742 110.493 590.633 110.583 590.503 110.69L589.687 111.345L589.262 110.793L591.196 109.304H591.87V116.442ZM599.509 114.787H598.44V116.442H597.649V114.787H594.197V114.104L597.595 109.265H598.44V114.055H599.509V114.787ZM597.649 114.055V111.721C597.649 111.542 597.65 111.381 597.654 111.237C597.657 111.091 597.662 110.956 597.668 110.832C597.675 110.705 597.68 110.585 597.683 110.471C597.689 110.357 597.694 110.244 597.698 110.134H597.658C597.597 110.264 597.525 110.402 597.444 110.549C597.366 110.692 597.286 110.821 597.204 110.935L595.002 114.055H597.649Z" fill="black"/>
<path d="M591.87 86.4424H591.079V81.3838C591.079 81.1917 591.079 81.0273 591.079 80.8906C591.082 80.7507 591.085 80.6237 591.089 80.5098C591.095 80.3926 591.103 80.2738 591.113 80.1533C591.012 80.2575 590.918 80.347 590.83 80.4219C590.742 80.4935 590.633 80.583 590.503 80.6904L589.687 81.3447L589.262 80.793L591.196 79.3037H591.87V86.4424ZM599.153 86.4424H594.475V85.7637L596.384 83.8252C596.739 83.4671 597.037 83.1481 597.278 82.8682C597.522 82.5882 597.707 82.3132 597.834 82.043C597.961 81.7695 598.025 81.4701 598.025 81.1445C598.025 80.7409 597.904 80.4333 597.663 80.2217C597.426 80.0068 597.112 79.8994 596.721 79.8994C596.379 79.8994 596.076 79.958 595.813 80.0752C595.549 80.1924 595.279 80.3584 595.002 80.5732L594.568 80.0264C594.756 79.8669 594.962 79.7253 595.183 79.6016C595.408 79.4779 595.647 79.3802 595.901 79.3086C596.158 79.237 596.431 79.2012 596.721 79.2012C597.16 79.2012 597.54 79.2777 597.859 79.4307C598.178 79.5837 598.423 79.8018 598.596 80.085C598.772 80.3682 598.86 80.7051 598.86 81.0957C598.86 81.4733 598.785 81.8249 598.635 82.1504C598.485 82.4727 598.275 82.7933 598.005 83.1123C597.735 83.4281 597.419 83.7633 597.058 84.1182L595.505 85.666V85.7002H599.153V86.4424Z" fill="black"/>
<path d="M593.266 140.969C593.266 141.288 593.204 141.564 593.081 141.799C592.957 142.033 592.785 142.225 592.563 142.375C592.342 142.521 592.081 142.624 591.782 142.683V142.722C592.348 142.793 592.773 142.976 593.056 143.269C593.343 143.562 593.486 143.946 593.486 144.421C593.486 144.834 593.388 145.201 593.193 145.52C593.001 145.839 592.705 146.089 592.304 146.271C591.907 146.451 591.398 146.54 590.776 146.54C590.398 146.54 590.049 146.509 589.726 146.447C589.407 146.389 589.101 146.289 588.808 146.149V145.388C589.105 145.534 589.427 145.65 589.775 145.734C590.123 145.816 590.46 145.856 590.786 145.856C591.437 145.856 591.907 145.728 592.197 145.471C592.487 145.21 592.632 144.855 592.632 144.406C592.632 144.097 592.55 143.848 592.387 143.659C592.228 143.467 591.997 143.327 591.694 143.239C591.395 143.148 591.033 143.103 590.61 143.103H589.897V142.409H590.615C591.002 142.409 591.331 142.352 591.601 142.238C591.871 142.124 592.077 141.965 592.217 141.76C592.36 141.551 592.431 141.306 592.431 141.022C592.431 140.661 592.311 140.383 592.07 140.188C591.829 139.989 591.502 139.89 591.089 139.89C590.835 139.89 590.604 139.916 590.395 139.968C590.187 140.02 589.992 140.091 589.809 140.183C589.627 140.274 589.445 140.38 589.262 140.5L588.852 139.943C589.113 139.742 589.43 139.567 589.804 139.421C590.179 139.274 590.604 139.201 591.079 139.201C591.808 139.201 592.355 139.367 592.719 139.699C593.084 140.031 593.266 140.454 593.266 140.969ZM599.192 142.863C599.192 143.443 599.148 143.96 599.06 144.416C598.972 144.872 598.834 145.257 598.645 145.573C598.456 145.889 598.212 146.13 597.912 146.296C597.613 146.459 597.253 146.54 596.833 146.54C596.303 146.54 595.863 146.395 595.515 146.105C595.17 145.816 594.911 145.397 594.739 144.851C594.569 144.3 594.485 143.638 594.485 142.863C594.485 142.102 594.561 141.447 594.714 140.9C594.87 140.35 595.121 139.929 595.466 139.636C595.811 139.34 596.267 139.191 596.833 139.191C597.37 139.191 597.813 139.338 598.161 139.631C598.51 139.921 598.769 140.34 598.938 140.891C599.107 141.438 599.192 142.095 599.192 142.863ZM595.3 142.863C595.3 143.527 595.351 144.081 595.451 144.523C595.552 144.966 595.715 145.298 595.94 145.52C596.168 145.738 596.465 145.847 596.833 145.847C597.201 145.847 597.497 145.738 597.722 145.52C597.95 145.301 598.114 144.971 598.215 144.528C598.319 144.086 598.371 143.531 598.371 142.863C598.371 142.209 598.321 141.662 598.22 141.223C598.119 140.78 597.956 140.448 597.732 140.227C597.507 140.002 597.208 139.89 596.833 139.89C596.459 139.89 596.159 140.002 595.935 140.227C595.71 140.448 595.547 140.78 595.447 141.223C595.349 141.662 595.3 142.209 595.3 142.863Z" fill="black"/>
<path opacity="0.7" d="M207.639 86.2046H206.472V82.9819H203.181V86.2046H202.01V79.0659H203.181V81.9858H206.472V79.0659H207.639V86.2046ZM210.459 80.7993V86.2046H209.312V80.7993H210.459ZM209.893 78.729C210.069 78.729 210.22 78.7762 210.347 78.8706C210.477 78.965 210.542 79.1278 210.542 79.3589C210.542 79.5868 210.477 79.7495 210.347 79.8472C210.22 79.9416 210.069 79.9888 209.893 79.9888C209.711 79.9888 209.556 79.9416 209.429 79.8472C209.305 79.7495 209.244 79.5868 209.244 79.3589C209.244 79.1278 209.305 78.965 209.429 78.8706C209.556 78.7762 209.711 78.729 209.893 78.729ZM213.548 88.6069C212.815 88.6069 212.254 88.4751 211.863 88.2114C211.473 87.9478 211.277 87.5783 211.277 87.103C211.277 86.771 211.381 86.4894 211.59 86.2583C211.798 86.0304 212.096 85.8726 212.483 85.7847C212.337 85.7196 212.21 85.6187 212.102 85.4819C211.998 85.342 211.946 85.1873 211.946 85.0181C211.946 84.8162 212.003 84.6437 212.117 84.5005C212.231 84.3573 212.402 84.2189 212.63 84.0854C212.347 83.965 212.119 83.7697 211.946 83.4995C211.777 83.2261 211.692 82.9054 211.692 82.5376C211.692 82.147 211.775 81.8149 211.941 81.5415C212.107 81.2648 212.35 81.0549 212.669 80.9116C212.988 80.7651 213.374 80.6919 213.826 80.6919C213.924 80.6919 214.03 80.6984 214.144 80.7114C214.261 80.7212 214.368 80.7342 214.466 80.7505C214.567 80.7635 214.643 80.7782 214.695 80.7944H216.565V81.4341L215.647 81.605C215.735 81.7287 215.805 81.8703 215.857 82.0298C215.909 82.186 215.935 82.3569 215.935 82.5425C215.935 83.1024 215.742 83.5435 215.354 83.8657C214.97 84.1847 214.44 84.3442 213.763 84.3442C213.6 84.3377 213.442 84.3247 213.289 84.3052C213.172 84.3768 213.082 84.4565 213.02 84.5444C212.959 84.6291 212.928 84.7251 212.928 84.8325C212.928 84.9204 212.959 84.992 213.02 85.0474C213.082 85.0994 213.173 85.1385 213.294 85.1646C213.418 85.1906 213.567 85.2036 213.743 85.2036H214.676C215.268 85.2036 215.721 85.3289 216.033 85.5796C216.346 85.8302 216.502 86.1981 216.502 86.6831C216.502 87.2983 216.248 87.772 215.74 88.104C215.232 88.4393 214.502 88.6069 213.548 88.6069ZM213.592 87.8013C213.992 87.8013 214.329 87.7622 214.602 87.6841C214.876 87.606 215.083 87.4937 215.223 87.3472C215.363 87.2039 215.433 87.033 215.433 86.8345C215.433 86.6587 215.389 86.5236 215.301 86.4292C215.213 86.3348 215.081 86.2697 214.905 86.2339C214.729 86.1981 214.511 86.1802 214.251 86.1802H213.401C213.19 86.1802 213.003 86.2127 212.84 86.2778C212.677 86.3462 212.55 86.4438 212.459 86.5708C212.371 86.6978 212.327 86.8507 212.327 87.0298C212.327 87.2772 212.436 87.4676 212.654 87.6011C212.876 87.7345 213.188 87.8013 213.592 87.8013ZM213.816 83.5923C214.152 83.5923 214.401 83.5011 214.563 83.3188C214.726 83.1333 214.808 82.8729 214.808 82.5376C214.808 82.173 214.723 81.8996 214.554 81.7173C214.388 81.535 214.14 81.4438 213.811 81.4438C213.489 81.4438 213.243 81.5366 213.074 81.7222C212.908 81.9077 212.825 82.1828 212.825 82.5474C212.825 82.8761 212.908 83.1333 213.074 83.3188C213.243 83.5011 213.491 83.5923 213.816 83.5923ZM218.599 78.6069V80.5161C218.599 80.7147 218.593 80.9084 218.58 81.0972C218.57 81.286 218.558 81.4325 218.545 81.5366H218.609C218.723 81.3478 218.863 81.1932 219.029 81.0728C219.195 80.9491 219.38 80.8563 219.585 80.7944C219.794 80.7326 220.015 80.7017 220.25 80.7017C220.663 80.7017 221.015 80.7716 221.304 80.9116C221.594 81.0483 221.815 81.2616 221.968 81.5513C222.125 81.841 222.203 82.217 222.203 82.6792V86.2046H221.055V82.894C221.055 82.4741 220.969 82.16 220.796 81.9517C220.624 81.7401 220.357 81.6343 219.996 81.6343C219.647 81.6343 219.371 81.7075 219.166 81.854C218.964 81.9972 218.819 82.2104 218.731 82.4937C218.643 82.7736 218.599 83.1154 218.599 83.519V86.2046H217.452V78.6069H218.599ZM227.486 86.2046H226.324V79.0659H230.357V80.0522H227.486V82.2788H230.172V83.2603H227.486V86.2046ZM232.591 86.2046H231.439V78.6069H232.591V86.2046ZM233.316 80.7993H234.566L235.675 83.8853C235.724 84.0252 235.768 84.1636 235.807 84.3003C235.849 84.4338 235.885 84.5656 235.914 84.6958C235.947 84.826 235.973 84.9562 235.992 85.0864H236.021C236.054 84.9172 236.1 84.7284 236.158 84.52C236.22 84.3084 236.288 84.0968 236.363 83.8853L237.428 80.7993H238.663L236.344 86.9468C236.21 87.2983 236.046 87.5978 235.851 87.8452C235.658 88.0959 235.431 88.2847 235.167 88.4116C234.903 88.5418 234.602 88.6069 234.264 88.6069C234.101 88.6069 233.959 88.5972 233.839 88.5776C233.718 88.5614 233.616 88.5435 233.531 88.5239V87.606C233.6 87.6222 233.686 87.6369 233.79 87.6499C233.894 87.6629 234.002 87.6694 234.112 87.6694C234.317 87.6694 234.495 87.6287 234.644 87.5474C234.794 87.466 234.921 87.3504 235.025 87.2007C235.13 87.0542 235.216 86.8866 235.284 86.6978L235.475 86.1899L233.316 80.7993ZM241.537 80.6968C242.018 80.6968 242.432 80.7961 242.777 80.9946C243.122 81.1932 243.387 81.4748 243.573 81.8394C243.758 82.2039 243.851 82.6401 243.851 83.1479V83.7632H240.243C240.256 84.2873 240.396 84.6909 240.663 84.9741C240.933 85.2573 241.31 85.3989 241.795 85.3989C242.141 85.3989 242.45 85.3664 242.723 85.3013C243 85.2329 243.285 85.1336 243.578 85.0034V85.936C243.308 86.063 243.032 86.1558 242.752 86.2144C242.473 86.2729 242.137 86.3022 241.747 86.3022C241.216 86.3022 240.749 86.1997 240.345 85.9946C239.945 85.7863 239.631 85.4771 239.403 85.0669C239.178 84.6567 239.066 84.1473 239.066 83.5386C239.066 82.9331 239.169 82.4188 239.374 81.9956C239.579 81.5724 239.867 81.2502 240.238 81.0288C240.609 80.8075 241.042 80.6968 241.537 80.6968ZM241.537 81.561C241.175 81.561 240.882 81.6782 240.658 81.9126C240.436 82.147 240.306 82.4904 240.267 82.9429H242.728C242.725 82.6727 242.679 82.4334 242.591 82.2251C242.507 82.0168 242.377 81.854 242.201 81.7368C242.028 81.6196 241.807 81.561 241.537 81.561ZM247.784 80.6968C247.875 80.6968 247.975 80.7017 248.082 80.7114C248.19 80.7212 248.282 80.7342 248.36 80.7505L248.253 81.8247C248.185 81.8052 248.1 81.7905 247.999 81.7808C247.902 81.771 247.814 81.7661 247.735 81.7661C247.53 81.7661 247.335 81.8003 247.15 81.8687C246.964 81.9338 246.8 82.0347 246.656 82.1714C246.513 82.3049 246.401 82.4725 246.319 82.6743C246.238 82.8761 246.197 83.1105 246.197 83.3774V86.2046H245.045V80.7993H245.944L246.1 81.7515H246.153C246.261 81.5594 246.394 81.3836 246.554 81.2241C246.713 81.0646 246.896 80.9377 247.101 80.8433C247.309 80.7456 247.537 80.6968 247.784 80.6968ZM252.894 84.6616C252.894 85.0164 252.808 85.3159 252.635 85.5601C252.463 85.8042 252.211 85.9897 251.879 86.1167C251.55 86.2404 251.146 86.3022 250.668 86.3022C250.29 86.3022 249.965 86.2746 249.691 86.2192C249.421 86.1672 249.165 86.0858 248.925 85.9751V84.9839C249.182 85.1043 249.47 85.2085 249.789 85.2964C250.111 85.3843 250.415 85.4282 250.702 85.4282C251.08 85.4282 251.351 85.3696 251.517 85.2524C251.683 85.132 251.766 84.9725 251.766 84.7739C251.766 84.6567 251.732 84.5526 251.664 84.4614C251.599 84.367 251.475 84.271 251.293 84.1733C251.114 84.0724 250.85 83.952 250.502 83.812C250.16 83.6753 249.872 83.5386 249.637 83.4019C249.403 83.2651 249.226 83.1007 249.105 82.9087C248.985 82.7134 248.925 82.4644 248.925 82.1616C248.925 81.6831 249.113 81.3201 249.491 81.0728C249.872 80.8221 250.375 80.6968 251 80.6968C251.332 80.6968 251.644 80.731 251.937 80.7993C252.233 80.8644 252.523 80.9604 252.806 81.0874L252.445 81.9517C252.201 81.8442 251.955 81.7563 251.708 81.688C251.464 81.6164 251.215 81.5806 250.961 81.5806C250.664 81.5806 250.438 81.6261 250.282 81.7173C250.129 81.8084 250.052 81.9386 250.052 82.1079C250.052 82.2349 250.09 82.3423 250.165 82.4302C250.24 82.5181 250.368 82.606 250.551 82.6938C250.736 82.7817 250.993 82.8908 251.322 83.021C251.644 83.1447 251.923 83.2749 252.157 83.4116C252.395 83.5451 252.577 83.7095 252.704 83.9048C252.831 84.1001 252.894 84.3524 252.894 84.6616Z" fill="black"/>
<path opacity="0.7" d="M205.091 116.442L203.035 110.48H202.991C203.001 110.614 203.012 110.796 203.025 111.027C203.038 111.258 203.05 111.506 203.059 111.77C203.069 112.033 203.074 112.285 203.074 112.526V116.442H202.01V109.304H203.655L205.633 115.002H205.662L207.708 109.304H209.348V116.442H208.23V112.468C208.23 112.25 208.233 112.014 208.24 111.76C208.25 111.506 208.26 111.265 208.269 111.037C208.282 110.809 208.292 110.627 208.299 110.49H208.26L206.126 116.442H205.091ZM213.164 110.935C213.646 110.935 214.06 111.034 214.405 111.232C214.75 111.431 215.015 111.713 215.201 112.077C215.386 112.442 215.479 112.878 215.479 113.386V114.001H211.87C211.883 114.525 212.023 114.929 212.29 115.212C212.561 115.495 212.938 115.637 213.423 115.637C213.768 115.637 214.077 115.604 214.351 115.539C214.628 115.471 214.912 115.371 215.205 115.241V116.174C214.935 116.301 214.66 116.394 214.38 116.452C214.1 116.511 213.765 116.54 213.374 116.54C212.844 116.54 212.377 116.438 211.973 116.232C211.573 116.024 211.258 115.715 211.031 115.305C210.806 114.895 210.694 114.385 210.694 113.776C210.694 113.171 210.796 112.657 211.001 112.233C211.206 111.81 211.494 111.488 211.866 111.267C212.237 111.045 212.67 110.935 213.164 110.935ZM213.164 111.799C212.803 111.799 212.51 111.916 212.285 112.15C212.064 112.385 211.934 112.728 211.895 113.181H214.356C214.353 112.91 214.307 112.671 214.219 112.463C214.134 112.255 214.004 112.092 213.828 111.975C213.656 111.857 213.435 111.799 213.164 111.799ZM218.489 116.54C217.845 116.54 217.327 116.306 216.936 115.837C216.549 115.365 216.355 114.67 216.355 113.752C216.355 112.824 216.552 112.123 216.946 111.647C217.343 111.172 217.866 110.935 218.514 110.935C218.787 110.935 219.026 110.972 219.231 111.047C219.436 111.118 219.612 111.216 219.759 111.34C219.908 111.464 220.035 111.602 220.14 111.755H220.193C220.177 111.654 220.158 111.509 220.135 111.32C220.115 111.128 220.105 110.951 220.105 110.788V108.845H221.258V116.442H220.359L220.154 115.705H220.105C220.008 115.861 219.884 116.003 219.734 116.13C219.588 116.254 219.412 116.353 219.207 116.428C219.005 116.503 218.766 116.54 218.489 116.54ZM218.811 115.607C219.303 115.607 219.65 115.466 219.852 115.183C220.053 114.899 220.158 114.475 220.164 113.908V113.757C220.164 113.151 220.066 112.688 219.871 112.365C219.676 112.04 219.319 111.877 218.802 111.877C218.388 111.877 218.073 112.045 217.854 112.38C217.64 112.712 217.532 113.176 217.532 113.771C217.532 114.367 217.64 114.823 217.854 115.139C218.073 115.451 218.392 115.607 218.811 115.607ZM223.951 111.037V116.442H222.803V111.037H223.951ZM223.384 108.967C223.56 108.967 223.711 109.014 223.838 109.108C223.969 109.203 224.034 109.366 224.034 109.597C224.034 109.825 223.969 109.987 223.838 110.085C223.711 110.179 223.56 110.227 223.384 110.227C223.202 110.227 223.047 110.179 222.92 110.085C222.797 109.987 222.735 109.825 222.735 109.597C222.735 109.366 222.797 109.203 222.92 109.108C223.047 109.014 223.202 108.967 223.384 108.967ZM230.208 111.037V116.442H229.305L229.149 115.715H229.085C228.971 115.9 228.826 116.055 228.651 116.179C228.475 116.299 228.279 116.389 228.065 116.447C227.85 116.509 227.624 116.54 227.386 116.54C226.979 116.54 226.631 116.472 226.341 116.335C226.055 116.195 225.835 115.98 225.682 115.69C225.529 115.401 225.452 115.026 225.452 114.567V111.037H226.605V114.353C226.605 114.772 226.689 115.087 226.859 115.295C227.031 115.503 227.298 115.607 227.659 115.607C228.008 115.607 228.284 115.536 228.489 115.393C228.694 115.249 228.839 115.038 228.924 114.758C229.012 114.478 229.056 114.134 229.056 113.728V111.037H230.208ZM237.862 110.935C238.468 110.935 238.923 111.091 239.229 111.403C239.538 111.716 239.693 112.217 239.693 112.907V116.442H238.546V113.112C238.546 112.702 238.466 112.393 238.306 112.185C238.147 111.976 237.904 111.872 237.579 111.872C237.123 111.872 236.794 112.019 236.593 112.312C236.394 112.601 236.295 113.023 236.295 113.576V116.442H235.147V113.112C235.147 112.839 235.111 112.611 235.04 112.429C234.971 112.243 234.866 112.105 234.722 112.014C234.579 111.919 234.399 111.872 234.18 111.872C233.865 111.872 233.612 111.944 233.424 112.087C233.238 112.23 233.105 112.442 233.023 112.722C232.942 112.998 232.901 113.339 232.901 113.742V116.442H231.754V111.037H232.647L232.808 111.765H232.872C232.983 111.576 233.119 111.421 233.282 111.301C233.448 111.177 233.632 111.086 233.834 111.027C234.036 110.965 234.246 110.935 234.464 110.935C234.867 110.935 235.207 111.006 235.484 111.149C235.761 111.289 235.968 111.504 236.104 111.794H236.192C236.361 111.501 236.597 111.285 236.9 111.145C237.203 111.005 237.524 110.935 237.862 110.935ZM244.972 116.442H243.81V109.304H247.843V110.29H244.972V112.517H247.657V113.498H244.972V116.442ZM250.077 116.442H248.924V108.845H250.077V116.442ZM250.802 111.037H252.052L253.16 114.123C253.209 114.263 253.253 114.401 253.292 114.538C253.334 114.672 253.37 114.803 253.4 114.934C253.432 115.064 253.458 115.194 253.478 115.324H253.507C253.54 115.155 253.585 114.966 253.644 114.758C253.706 114.546 253.774 114.335 253.849 114.123L254.913 111.037H256.149L253.829 117.185C253.696 117.536 253.531 117.836 253.336 118.083C253.144 118.334 252.916 118.522 252.652 118.649C252.389 118.78 252.088 118.845 251.749 118.845C251.586 118.845 251.445 118.835 251.324 118.815C251.204 118.799 251.101 118.781 251.017 118.762V117.844C251.085 117.86 251.171 117.875 251.276 117.888C251.38 117.901 251.487 117.907 251.598 117.907C251.803 117.907 251.98 117.867 252.13 117.785C252.28 117.704 252.407 117.588 252.511 117.438C252.615 117.292 252.701 117.124 252.77 116.936L252.96 116.428L250.802 111.037ZM259.022 110.935C259.504 110.935 259.917 111.034 260.262 111.232C260.608 111.431 260.873 111.713 261.058 112.077C261.244 112.442 261.337 112.878 261.337 113.386V114.001H257.728C257.741 114.525 257.881 114.929 258.148 115.212C258.418 115.495 258.796 115.637 259.281 115.637C259.626 115.637 259.935 115.604 260.209 115.539C260.485 115.471 260.77 115.371 261.063 115.241V116.174C260.793 116.301 260.518 116.394 260.238 116.452C259.958 116.511 259.623 116.54 259.232 116.54C258.702 116.54 258.234 116.438 257.831 116.232C257.43 116.024 257.116 115.715 256.888 115.305C256.664 114.895 256.552 114.385 256.552 113.776C256.552 113.171 256.654 112.657 256.859 112.233C257.064 111.81 257.352 111.488 257.723 111.267C258.094 111.045 258.527 110.935 259.022 110.935ZM259.022 111.799C258.661 111.799 258.368 111.916 258.143 112.15C257.922 112.385 257.792 112.728 257.753 113.181H260.214C260.21 112.91 260.165 112.671 260.077 112.463C259.992 112.255 259.862 112.092 259.686 111.975C259.514 111.857 259.292 111.799 259.022 111.799ZM265.27 110.935C265.361 110.935 265.46 110.939 265.568 110.949C265.675 110.959 265.768 110.972 265.846 110.988L265.739 112.062C265.67 112.043 265.586 112.028 265.485 112.019C265.387 112.009 265.299 112.004 265.221 112.004C265.016 112.004 264.821 112.038 264.635 112.106C264.45 112.172 264.285 112.272 264.142 112.409C263.999 112.543 263.886 112.71 263.805 112.912C263.724 113.114 263.683 113.348 263.683 113.615V116.442H262.531V111.037H263.429L263.585 111.989H263.639C263.746 111.797 263.88 111.621 264.039 111.462C264.199 111.302 264.381 111.175 264.586 111.081C264.795 110.983 265.022 110.935 265.27 110.935ZM270.38 114.899C270.38 115.254 270.294 115.554 270.121 115.798C269.949 116.042 269.696 116.228 269.364 116.354C269.035 116.478 268.632 116.54 268.153 116.54C267.776 116.54 267.45 116.512 267.177 116.457C266.907 116.405 266.651 116.324 266.41 116.213V115.222C266.667 115.342 266.955 115.446 267.274 115.534C267.597 115.622 267.901 115.666 268.187 115.666C268.565 115.666 268.837 115.607 269.003 115.49C269.169 115.37 269.252 115.21 269.252 115.012C269.252 114.895 269.218 114.79 269.149 114.699C269.084 114.605 268.961 114.509 268.778 114.411C268.599 114.31 268.336 114.19 267.987 114.05C267.645 113.913 267.357 113.776 267.123 113.64C266.889 113.503 266.711 113.339 266.591 113.146C266.47 112.951 266.41 112.702 266.41 112.399C266.41 111.921 266.599 111.558 266.977 111.311C267.357 111.06 267.86 110.935 268.485 110.935C268.817 110.935 269.13 110.969 269.423 111.037C269.719 111.102 270.009 111.198 270.292 111.325L269.931 112.189C269.686 112.082 269.441 111.994 269.193 111.926C268.949 111.854 268.7 111.818 268.446 111.818C268.15 111.818 267.924 111.864 267.768 111.955C267.615 112.046 267.538 112.176 267.538 112.346C267.538 112.473 267.575 112.58 267.65 112.668C267.725 112.756 267.854 112.844 268.036 112.932C268.222 113.02 268.479 113.129 268.808 113.259C269.13 113.382 269.408 113.513 269.643 113.649C269.88 113.783 270.062 113.947 270.189 114.143C270.316 114.338 270.38 114.59 270.38 114.899Z" fill="black"/>
<path opacity="0.7" d="M202.01 146.68V139.542H203.181V145.684H206.214V146.68H202.01ZM212.017 143.965C212.017 144.415 211.958 144.813 211.841 145.162C211.724 145.51 211.553 145.805 211.328 146.045C211.104 146.283 210.834 146.465 210.518 146.592C210.202 146.716 209.846 146.778 209.449 146.778C209.077 146.778 208.737 146.716 208.428 146.592C208.119 146.465 207.85 146.283 207.622 146.045C207.398 145.805 207.224 145.51 207.1 145.162C206.976 144.813 206.914 144.415 206.914 143.965C206.914 143.37 207.017 142.865 207.222 142.452C207.43 142.035 207.727 141.718 208.111 141.5C208.495 141.281 208.952 141.172 209.483 141.172C209.981 141.172 210.42 141.281 210.801 141.5C211.182 141.718 211.48 142.035 211.695 142.452C211.91 142.868 212.017 143.373 212.017 143.965ZM208.096 143.965C208.096 144.359 208.143 144.696 208.238 144.976C208.335 145.256 208.485 145.471 208.687 145.621C208.889 145.767 209.149 145.84 209.468 145.84C209.787 145.84 210.048 145.767 210.249 145.621C210.451 145.471 210.599 145.256 210.694 144.976C210.788 144.696 210.835 144.359 210.835 143.965C210.835 143.571 210.788 143.238 210.694 142.964C210.599 142.688 210.451 142.478 210.249 142.334C210.048 142.188 209.785 142.115 209.463 142.115C208.988 142.115 208.641 142.274 208.423 142.593C208.205 142.912 208.096 143.37 208.096 143.965ZM217.654 146.675L216.971 144.161C216.938 144.037 216.899 143.887 216.853 143.711C216.808 143.536 216.762 143.355 216.717 143.169C216.671 142.981 216.629 142.806 216.59 142.647C216.554 142.487 216.526 142.364 216.507 142.276H216.468C216.451 142.364 216.425 142.487 216.39 142.647C216.354 142.806 216.313 142.981 216.268 143.169C216.222 143.358 216.176 143.542 216.131 143.721C216.088 143.9 216.049 144.053 216.014 144.18L215.296 146.675H214.036L212.522 141.27H213.685L214.388 143.956C214.433 144.138 214.477 144.335 214.519 144.546C214.565 144.758 214.604 144.96 214.637 145.152C214.669 145.344 214.694 145.502 214.71 145.625H214.749C214.762 145.538 214.78 145.427 214.803 145.293C214.825 145.157 214.852 145.015 214.881 144.869C214.91 144.719 214.939 144.579 214.969 144.449C214.998 144.315 215.026 144.208 215.052 144.126L215.882 141.27H217.137L217.933 144.126C217.968 144.25 218.007 144.406 218.05 144.595C218.092 144.781 218.13 144.968 218.162 145.157C218.198 145.342 218.221 145.497 218.23 145.621H218.269C218.283 145.51 218.305 145.36 218.338 145.171C218.374 144.979 218.414 144.776 218.46 144.561C218.505 144.343 218.553 144.141 218.602 143.956L219.319 141.27H220.462L218.938 146.675H217.654ZM225.067 146.68H223.904V139.542H227.938V140.528H225.067V142.754H227.752V143.736H225.067V146.68ZM230.172 146.68H229.019V139.083H230.172V146.68ZM230.897 141.275H232.147L233.255 144.361C233.304 144.501 233.348 144.639 233.387 144.776C233.429 144.909 233.465 145.041 233.494 145.171C233.527 145.302 233.553 145.432 233.573 145.562H233.602C233.634 145.393 233.68 145.204 233.739 144.996C233.8 144.784 233.869 144.572 233.944 144.361L235.008 141.275H236.244L233.924 147.422C233.791 147.774 233.626 148.073 233.431 148.321C233.239 148.571 233.011 148.76 232.747 148.887C232.484 149.017 232.183 149.083 231.844 149.083C231.681 149.083 231.54 149.073 231.419 149.053C231.299 149.037 231.196 149.019 231.112 149V148.082C231.18 148.098 231.266 148.112 231.37 148.125C231.475 148.139 231.582 148.145 231.693 148.145C231.898 148.145 232.075 148.104 232.225 148.023C232.375 147.942 232.502 147.826 232.606 147.676C232.71 147.53 232.796 147.362 232.865 147.173L233.055 146.666L230.897 141.275ZM239.117 141.172C239.599 141.172 240.012 141.272 240.357 141.47C240.702 141.669 240.968 141.95 241.153 142.315C241.339 142.68 241.432 143.116 241.432 143.624V144.239H237.823C237.836 144.763 237.976 145.167 238.243 145.45C238.513 145.733 238.891 145.875 239.376 145.875C239.721 145.875 240.03 145.842 240.304 145.777C240.58 145.708 240.865 145.609 241.158 145.479V146.412C240.888 146.539 240.613 146.631 240.333 146.69C240.053 146.749 239.718 146.778 239.327 146.778C238.796 146.778 238.329 146.675 237.926 146.47C237.525 146.262 237.211 145.953 236.983 145.542C236.759 145.132 236.646 144.623 236.646 144.014C236.646 143.409 236.749 142.894 236.954 142.471C237.159 142.048 237.447 141.726 237.818 141.504C238.189 141.283 238.622 141.172 239.117 141.172ZM239.117 142.037C238.756 142.037 238.463 142.154 238.238 142.388C238.017 142.623 237.887 142.966 237.848 143.418H240.309C240.305 143.148 240.26 142.909 240.172 142.701C240.087 142.492 239.957 142.33 239.781 142.212C239.609 142.095 239.387 142.037 239.117 142.037ZM245.365 141.172C245.456 141.172 245.555 141.177 245.663 141.187C245.77 141.197 245.863 141.21 245.941 141.226L245.834 142.3C245.765 142.281 245.681 142.266 245.58 142.256C245.482 142.247 245.394 142.242 245.316 142.242C245.111 142.242 244.916 142.276 244.73 142.344C244.544 142.409 244.38 142.51 244.237 142.647C244.094 142.78 243.981 142.948 243.9 143.15C243.819 143.352 243.778 143.586 243.778 143.853V146.68H242.626V141.275H243.524L243.68 142.227H243.734C243.841 142.035 243.975 141.859 244.134 141.7C244.294 141.54 244.476 141.413 244.681 141.319C244.89 141.221 245.117 141.172 245.365 141.172ZM250.475 145.137C250.475 145.492 250.388 145.792 250.216 146.036C250.043 146.28 249.791 146.465 249.459 146.592C249.13 146.716 248.727 146.778 248.248 146.778C247.871 146.778 247.545 146.75 247.272 146.695C247.001 146.643 246.746 146.561 246.505 146.451V145.459C246.762 145.58 247.05 145.684 247.369 145.772C247.692 145.86 247.996 145.904 248.282 145.904C248.66 145.904 248.932 145.845 249.098 145.728C249.264 145.608 249.347 145.448 249.347 145.25C249.347 145.132 249.313 145.028 249.244 144.937C249.179 144.843 249.055 144.747 248.873 144.649C248.694 144.548 248.43 144.428 248.082 144.288C247.74 144.151 247.452 144.014 247.218 143.877C246.984 143.741 246.806 143.576 246.686 143.384C246.565 143.189 246.505 142.94 246.505 142.637C246.505 142.159 246.694 141.796 247.071 141.548C247.452 141.298 247.955 141.172 248.58 141.172C248.912 141.172 249.225 141.207 249.518 141.275C249.814 141.34 250.104 141.436 250.387 141.563L250.026 142.427C249.781 142.32 249.536 142.232 249.288 142.164C249.044 142.092 248.795 142.056 248.541 142.056C248.245 142.056 248.019 142.102 247.862 142.193C247.709 142.284 247.633 142.414 247.633 142.583C247.633 142.71 247.67 142.818 247.745 142.906C247.82 142.994 247.949 143.082 248.131 143.169C248.317 143.257 248.574 143.366 248.902 143.497C249.225 143.62 249.503 143.75 249.737 143.887C249.975 144.021 250.157 144.185 250.284 144.38C250.411 144.576 250.475 144.828 250.475 145.137Z" fill="black"/>
<rect x="184.671" y="77.2651" width="9.87891" height="9.87891" rx="2" fill="#FFC66E"/>
<rect x="184.671" y="107.503" width="9.87891" height="9.87891" rx="2" fill="#EC6409"/>
<rect x="184.671" y="137.741" width="9.87891" height="9.87891" rx="2" fill="#BF4B00"/>
<path d="M547.468 15.8506C547.058 15.8506 546.691 15.9248 546.367 16.0732C546.046 16.2217 545.775 16.4365 545.552 16.7178C545.33 16.9951 545.16 17.333 545.042 17.7314C544.925 18.126 544.867 18.5713 544.867 19.0674C544.867 19.7314 544.96 20.3037 545.148 20.7842C545.335 21.2607 545.621 21.6279 546.003 21.8857C546.386 22.1396 546.871 22.2666 547.457 22.2666C547.82 22.2666 548.173 22.2314 548.517 22.1611C548.861 22.0908 549.216 21.9951 549.583 21.874V23.0693C549.236 23.2061 548.884 23.3057 548.529 23.3682C548.173 23.4307 547.763 23.4619 547.298 23.4619C546.423 23.4619 545.697 23.2803 545.119 22.917C544.544 22.5537 544.115 22.042 543.83 21.3818C543.548 20.7217 543.408 19.9482 543.408 19.0615C543.408 18.4131 543.498 17.8193 543.677 17.2803C543.857 16.7412 544.119 16.2764 544.462 15.8857C544.806 15.4912 545.23 15.1885 545.734 14.9775C546.242 14.7627 546.822 14.6553 547.474 14.6553C547.904 14.6553 548.326 14.7041 548.74 14.8018C549.158 14.8955 549.544 15.0303 549.9 15.2061L549.408 16.3662C549.111 16.2256 548.8 16.1045 548.476 16.0029C548.152 15.9014 547.816 15.8506 547.468 15.8506ZM552.546 23.3447H551.163V14.2275H552.546V23.3447ZM556.937 16.7354C557.758 16.7354 558.377 16.917 558.795 17.2803C559.217 17.6436 559.427 18.21 559.427 18.9795V23.3447H558.449L558.185 22.4248H558.138C557.955 22.6592 557.765 22.8525 557.57 23.0049C557.375 23.1572 557.148 23.2705 556.89 23.3447C556.636 23.4229 556.326 23.4619 555.959 23.4619C555.572 23.4619 555.226 23.3916 554.922 23.251C554.617 23.1064 554.377 22.8877 554.201 22.5947C554.025 22.3018 553.937 21.9307 553.937 21.4814C553.937 20.8135 554.185 20.3115 554.681 19.9756C555.181 19.6396 555.935 19.4541 556.943 19.4189L558.068 19.3779V19.0381C558.068 18.5889 557.963 18.2686 557.752 18.0771C557.545 17.8857 557.252 17.79 556.873 17.79C556.549 17.79 556.234 17.8369 555.929 17.9307C555.625 18.0244 555.328 18.1396 555.039 18.2764L554.593 17.3037C554.91 17.1357 555.269 16.999 555.672 16.8936C556.078 16.7881 556.5 16.7354 556.937 16.7354ZM558.062 20.2451L557.224 20.2744C556.537 20.2979 556.054 20.415 555.777 20.626C555.5 20.8369 555.361 21.126 555.361 21.4932C555.361 21.8135 555.457 22.0479 555.648 22.1963C555.84 22.3408 556.092 22.4131 556.404 22.4131C556.881 22.4131 557.275 22.2783 557.588 22.0088C557.904 21.7354 558.062 21.335 558.062 20.8076V20.2451ZM565.595 21.4932C565.595 21.9189 565.491 22.2783 565.284 22.5713C565.077 22.8643 564.774 23.0869 564.376 23.2393C563.981 23.3877 563.497 23.4619 562.923 23.4619C562.47 23.4619 562.079 23.4287 561.751 23.3623C561.427 23.2998 561.12 23.2021 560.831 23.0693V21.8799C561.14 22.0244 561.485 22.1494 561.868 22.2549C562.255 22.3604 562.62 22.4131 562.964 22.4131C563.417 22.4131 563.743 22.3428 563.942 22.2021C564.141 22.0576 564.241 21.8662 564.241 21.6279C564.241 21.4873 564.2 21.3623 564.118 21.2529C564.04 21.1396 563.891 21.0244 563.673 20.9072C563.458 20.7861 563.141 20.6416 562.723 20.4736C562.313 20.3096 561.968 20.1455 561.686 19.9814C561.405 19.8174 561.192 19.6201 561.048 19.3896C560.903 19.1553 560.831 18.8564 560.831 18.4932C560.831 17.9189 561.057 17.4834 561.511 17.1865C561.968 16.8857 562.571 16.7354 563.321 16.7354C563.72 16.7354 564.095 16.7764 564.446 16.8584C564.802 16.9365 565.149 17.0518 565.489 17.2041L565.056 18.2412C564.763 18.1123 564.468 18.0068 564.171 17.9248C563.878 17.8389 563.579 17.7959 563.274 17.7959C562.919 17.7959 562.647 17.8506 562.46 17.96C562.276 18.0693 562.184 18.2256 562.184 18.4287C562.184 18.5811 562.229 18.71 562.319 18.8154C562.409 18.9209 562.563 19.0264 562.782 19.1318C563.005 19.2373 563.313 19.3682 563.708 19.5244C564.095 19.6729 564.429 19.8291 564.71 19.9932C564.995 20.1533 565.214 20.3506 565.366 20.585C565.518 20.8193 565.595 21.1221 565.595 21.4932ZM571.322 21.4932C571.322 21.9189 571.219 22.2783 571.012 22.5713C570.805 22.8643 570.502 23.0869 570.103 23.2393C569.709 23.3877 569.225 23.4619 568.65 23.4619C568.197 23.4619 567.807 23.4287 567.478 23.3623C567.154 23.2998 566.848 23.2021 566.559 23.0693V21.8799C566.867 22.0244 567.213 22.1494 567.596 22.2549C567.982 22.3604 568.348 22.4131 568.691 22.4131C569.145 22.4131 569.471 22.3428 569.67 22.2021C569.869 22.0576 569.969 21.8662 569.969 21.6279C569.969 21.4873 569.928 21.3623 569.846 21.2529C569.768 21.1396 569.619 21.0244 569.4 20.9072C569.186 20.7861 568.869 20.6416 568.451 20.4736C568.041 20.3096 567.695 20.1455 567.414 19.9814C567.133 19.8174 566.92 19.6201 566.775 19.3896C566.631 19.1553 566.559 18.8564 566.559 18.4932C566.559 17.9189 566.785 17.4834 567.238 17.1865C567.695 16.8857 568.299 16.7354 569.049 16.7354C569.447 16.7354 569.822 16.7764 570.174 16.8584C570.529 16.9365 570.877 17.0518 571.217 17.2041L570.783 18.2412C570.49 18.1123 570.195 18.0068 569.898 17.9248C569.605 17.8389 569.307 17.7959 569.002 17.7959C568.646 17.7959 568.375 17.8506 568.187 17.96C568.004 18.0693 567.912 18.2256 567.912 18.4287C567.912 18.5811 567.957 18.71 568.047 18.8154C568.137 18.9209 568.291 19.0264 568.51 19.1318C568.732 19.2373 569.041 19.3682 569.436 19.5244C569.822 19.6729 570.156 19.8291 570.437 19.9932C570.723 20.1533 570.941 20.3506 571.094 20.585C571.246 20.8193 571.322 21.1221 571.322 21.4932ZM581.354 21.4639H580.194V23.3447H578.834V21.4639H574.938V20.4209L578.852 14.7549H580.194V20.3213H581.354V21.4639ZM578.834 20.3213V18.1943C578.834 18.0186 578.836 17.8408 578.84 17.6611C578.848 17.4775 578.856 17.3018 578.863 17.1338C578.871 16.9658 578.879 16.8115 578.887 16.6709C578.895 16.5264 578.901 16.4072 578.905 16.3135H578.858C578.783 16.4697 578.701 16.6299 578.612 16.7939C578.522 16.9541 578.426 17.1104 578.324 17.2627L576.215 20.3213H578.834ZM582.576 14.7783H585.124C586.23 14.7783 587.064 14.9385 587.626 15.2588C588.189 15.5791 588.47 16.1318 588.47 16.917C588.47 17.2451 588.411 17.542 588.294 17.8076C588.181 18.0693 588.015 18.2861 587.796 18.458C587.577 18.626 587.308 18.7393 586.988 18.7979V18.8564C587.32 18.915 587.615 19.0186 587.872 19.167C588.134 19.3154 588.339 19.5283 588.488 19.8057C588.64 20.083 588.716 20.4424 588.716 20.8838C588.716 21.4072 588.591 21.8525 588.341 22.2197C588.095 22.5869 587.742 22.8662 587.281 23.0576C586.824 23.249 586.281 23.3447 585.652 23.3447H582.576V14.7783ZM583.982 18.3115H585.329C585.966 18.3115 586.408 18.208 586.654 18.001C586.9 17.7939 587.023 17.4912 587.023 17.0928C587.023 16.6865 586.876 16.3936 586.583 16.2139C586.294 16.0342 585.833 15.9443 585.201 15.9443H583.982V18.3115ZM583.982 19.4482V22.167H585.464C586.12 22.167 586.581 22.04 586.847 21.7861C587.113 21.5322 587.245 21.1885 587.245 20.7549C587.245 20.4893 587.185 20.2588 587.064 20.0635C586.947 19.8682 586.753 19.7178 586.484 19.6123C586.214 19.5029 585.851 19.4482 585.394 19.4482H583.982Z" fill="#BF4B00"/>
<path d="M594.032 17.1731L598.964 22.105L603.896 17.1731" stroke="#BF4B00" stroke-width="1.5" stroke-linecap="round"/>
<defs>
<linearGradient id="paint0_linear_402_135" x1="5.51332" y1="2.08528" x2="5.51332" y2="116.515" gradientUnits="userSpaceOnUse">
<stop stop-color="#FFC770"/>
<stop offset="1" stop-color="#FD9512"/>
</linearGradient>
<linearGradient id="paint1_linear_402_135" x1="286.548" y1="108.272" x2="323.996" y2="112.061" gradientUnits="userSpaceOnUse">
<stop stop-color="#EC6106"/>
<stop offset="1" stop-color="#EB660B"/>
</linearGradient>
</defs>
</svg>
