<svg width="59" height="64" viewBox="0 0 59 64" fill="none" xmlns="http://www.w3.org/2000/svg">
<path fill-rule="evenodd" clip-rule="evenodd" d="M32.3782 8.31742H44.4398C46.581 8.31742 48.3168 10.0532 48.3168 12.1944C48.3168 14.3356 46.581 16.0714 44.4398 16.0714H42.877C42.8237 16.0708 42.7702 16.0706 42.7167 16.0706H32.3781C23.5754 16.0706 16.4395 23.2065 16.4395 32.0092C16.4395 32.2846 16.4465 32.5583 16.4603 32.8302C16.474 33.1019 16.4946 33.3717 16.5218 33.6396C17.338 41.6768 24.1257 47.9487 32.3782 47.9487H44.4398C46.581 47.9487 48.3168 49.6844 48.3168 51.8256C48.3168 53.9668 46.581 55.7026 44.4398 55.7026H32.3782C19.2931 55.7026 8.68558 45.0951 8.68558 32.01C8.68558 18.9249 19.2931 8.31742 32.3782 8.31742ZM53.1205 44.0844C54.9555 46.1406 56.0708 48.8529 56.0708 51.8256C56.0708 58.2492 50.8634 63.4565 44.4398 63.4565H32.3782C15.0107 63.4565 0.931641 49.3774 0.931641 32.01C0.931641 14.6426 15.0107 0.563477 32.3782 0.563477H44.4398C50.8634 0.563477 56.0708 5.77081 56.0708 12.1944C56.0708 15.1667 54.9558 17.8786 53.1213 19.9347C56.5102 22.8576 58.6554 27.1829 58.6554 32.0092C58.6554 36.8359 56.5099 41.1615 53.1205 44.0844ZM24.214 32.5938C24.5137 36.8413 28.0544 40.1939 32.3781 40.1939H42.7167C47.237 40.1939 50.9014 36.5295 50.9014 32.0092C50.9014 27.5273 47.2989 23.8867 42.8316 23.8253H32.3782C27.8579 23.8253 24.1935 27.4897 24.1935 32.01C24.1935 32.2063 24.2004 32.401 24.214 32.5938ZM35.3929 32.0107C35.3929 33.6761 34.0429 35.0262 32.3775 35.0262C30.7121 35.0262 29.3621 33.6761 29.3621 32.0107C29.3621 30.3454 30.7121 28.9953 32.3775 28.9953C34.0429 28.9953 35.3929 30.3454 35.3929 32.0107ZM42.7175 35.0262C44.3828 35.0262 45.7329 33.6761 45.7329 32.0107C45.7329 30.3454 44.3828 28.9953 42.7175 28.9953C41.0521 28.9953 39.702 30.3454 39.702 32.0107C39.702 33.6761 41.0521 35.0262 42.7175 35.0262Z" fill="url(#paint0_linear_265_16893)"/>
<defs>
<linearGradient id="paint0_linear_265_16893" x1="66.029" y1="-4.01491" x2="-13.6046" y2="67.8239" gradientUnits="userSpaceOnUse">
<stop stop-color="#FF9900"/>
<stop offset="1" stop-color="#F06445"/>
</linearGradient>
</defs>
</svg>
