<svg width="17" height="17" viewBox="0 0 17 17" fill="none" xmlns="http://www.w3.org/2000/svg">
<path d="M16.6758 8.52007C16.6776 8.7539 16.6066 8.98247 16.4725 9.17404C16.3384 9.3656 16.1479 9.51062 15.9276 9.58895L11.407 11.2329L9.76376 15.7528C9.68276 15.971 9.53694 16.1592 9.34586 16.2921C9.15479 16.425 8.92762 16.4962 8.69488 16.4962C8.46214 16.4962 8.23497 16.425 8.04389 16.2921C7.85282 16.1592 7.70699 15.971 7.626 15.7528L5.98278 11.2322L1.46214 9.58895C1.24394 9.50796 1.05576 9.36213 0.922868 9.17106C0.789979 8.97998 0.71875 8.75282 0.71875 8.52007C0.71875 8.28733 0.789979 8.06016 0.922868 7.86909C1.05576 7.67801 1.24394 7.53219 1.46214 7.4512L5.98278 5.80797L7.626 1.28733C7.70699 1.06914 7.85282 0.880952 8.04389 0.748063C8.23497 0.615174 8.46214 0.543945 8.69488 0.543945C8.92762 0.543945 9.15479 0.615174 9.34586 0.748063C9.53694 0.880952 9.68276 1.06914 9.76376 1.28733L11.4077 5.80797L15.9276 7.4512C16.1479 7.52953 16.3384 7.67455 16.4725 7.86611C16.6066 8.05767 16.6776 8.28625 16.6758 8.52007Z" fill="url(#paint0_linear_513_970)"/>
<defs>
<linearGradient id="paint0_linear_513_970" x1="16.6759" y1="9.25529" x2="0.71875" y2="9.25529" gradientUnits="userSpaceOnUse">
<stop stop-color="#FD9512"/>
<stop offset="1" stop-color="#FFC770"/>
</linearGradient>
</defs>
</svg>
