<svg width="25" height="25" viewBox="0 0 25 25" fill="none" xmlns="http://www.w3.org/2000/svg">
<path d="M21.2002 9.88277L13.7002 17.3828C13.5957 17.4877 13.4715 17.5709 13.3347 17.6276C13.198 17.6844 13.0514 17.7137 12.9033 17.7137C12.7553 17.7137 12.6086 17.6844 12.4719 17.6276C12.3352 17.5709 12.211 17.4877 12.1064 17.3828L4.60644 9.88277C4.3951 9.67143 4.27637 9.38478 4.27637 9.0859C4.27637 8.78701 4.3951 8.50037 4.60644 8.28902C4.81779 8.07768 5.10443 7.95895 5.40332 7.95895C5.7022 7.95895 5.98885 8.07768 6.20019 8.28902L12.9043 14.9931L19.6083 8.28808C19.8197 8.07674 20.1063 7.95801 20.4052 7.95801C20.7041 7.95801 20.9907 8.07674 21.2021 8.28808C21.4134 8.49943 21.5321 8.78607 21.5321 9.08496C21.5321 9.38385 21.4134 9.67049 21.2021 9.88183L21.2002 9.88277Z" fill="black"/>
</svg>
