<svg width="22" height="22" viewBox="0 0 22 22" fill="none" xmlns="http://www.w3.org/2000/svg">
<path d="M17.7829 9.58654C17.7897 7.78315 17.081 6.05067 15.8123 4.76908C14.5435 3.48749 12.8182 2.76143 11.0149 2.75012H10.9636C10.0669 2.75125 9.1793 2.92896 8.35134 3.27313C7.52337 3.6173 6.7713 4.12118 6.13807 4.756C5.50484 5.39082 5.00284 6.14415 4.66075 6.97298C4.31865 7.8018 4.14315 8.68989 4.14428 9.58654C4.14428 12.5177 3.53755 14.1755 3.03336 15.0471C2.91213 15.2558 2.84757 15.4926 2.84607 15.7339C2.84457 15.9752 2.90619 16.2128 3.02482 16.423C3.14446 16.6319 3.3175 16.8054 3.52622 16.9255C3.73494 17.0456 3.97183 17.1081 4.21264 17.1066H7.54539C7.54539 18.0132 7.90552 18.8826 8.54656 19.5236C9.1876 20.1647 10.057 20.5248 10.9636 20.5248C11.8702 20.5248 12.7396 20.1647 13.3806 19.5236C14.0217 18.8826 14.3818 18.0132 14.3818 17.1066H17.7146C17.9554 17.1081 18.1923 17.0456 18.401 16.9255C18.6097 16.8054 18.7827 16.6319 18.9024 16.423C19.021 16.2128 19.0826 15.9752 19.0811 15.7339C19.0796 15.4926 19.0151 15.2558 18.8938 15.0471C18.3897 14.1755 17.7829 12.5177 17.7829 9.58654ZM10.9636 19.1575C10.4204 19.1553 9.9 18.9385 9.51586 18.5543C9.13172 18.1702 8.91492 17.6498 8.91267 17.1066H13.0145C13.0123 17.6498 12.7955 18.1702 12.4113 18.5543C12.0272 18.9385 11.5068 19.1553 10.9636 19.1575ZM4.21264 15.7393C4.80228 14.7224 5.51156 12.8253 5.51156 9.58654C5.50931 8.86913 5.64867 8.15833 5.92166 7.49488C6.19464 6.83144 6.59588 6.22839 7.10237 5.72031C7.60886 5.21223 8.21065 4.80911 8.87324 4.53405C9.53583 4.25899 10.2462 4.1174 10.9636 4.11741H11.0063C11.7197 4.1191 12.4256 4.26278 13.0829 4.54007C13.7402 4.81736 14.3357 5.22272 14.8347 5.73251C15.3387 6.23939 15.7378 6.84072 16.0091 7.50205C16.2804 8.16338 16.4185 8.87173 16.4156 9.58654C16.4156 12.8253 17.1249 14.7224 17.7146 15.7393H4.21264ZM19.2442 6.27942C19.1499 6.32142 19.0483 6.34464 18.9451 6.34779C18.8166 6.34891 18.6904 6.31332 18.5814 6.2452C18.4724 6.17708 18.3851 6.07926 18.3298 5.96324C17.6549 4.60524 16.6204 3.4584 15.3389 2.64758C15.2626 2.59988 15.1964 2.53763 15.1442 2.46436C15.0919 2.39109 15.0546 2.30825 15.0344 2.22057C15.0141 2.13288 15.0114 2.04207 15.0262 1.95332C15.0411 1.86457 15.0733 1.77961 15.121 1.7033C15.1687 1.62699 15.2309 1.56082 15.3042 1.50857C15.3775 1.45632 15.4603 1.41901 15.548 1.39878C15.6357 1.37854 15.7265 1.37578 15.8152 1.39064C15.904 1.4055 15.989 1.43769 16.0653 1.48539C17.5651 2.42983 18.7724 3.77321 19.5518 5.36505C19.6319 5.52717 19.6445 5.71439 19.5868 5.88576C19.5292 6.05712 19.406 6.19867 19.2442 6.27942ZM2.98209 6.34779C2.8789 6.34464 2.77731 6.32142 2.68299 6.27942C2.52123 6.19867 2.39803 6.05712 2.34038 5.88576C2.28272 5.71439 2.2953 5.52717 2.37536 5.36505C3.15481 3.77321 4.36208 2.42983 5.86193 1.48539C6.01604 1.38907 6.20211 1.35791 6.3792 1.39878C6.46688 1.41901 6.54972 1.45632 6.62299 1.50857C6.69625 1.56082 6.75851 1.62699 6.80621 1.7033C6.8539 1.77961 6.8861 1.86457 6.90096 1.95332C6.91582 2.04207 6.91305 2.13288 6.89282 2.22057C6.87258 2.30825 6.83527 2.39109 6.78302 2.46436C6.73077 2.53763 6.66461 2.59988 6.58829 2.64758C5.30679 3.4584 4.27228 4.60524 3.59736 5.96324C3.54205 6.07926 3.45477 6.17708 3.34578 6.2452C3.23679 6.31332 3.11061 6.34891 2.98209 6.34779Z" fill="black"/>
</svg>
