<svg width="13" height="9" viewBox="0 0 13 9" fill="none" xmlns="http://www.w3.org/2000/svg">
<path d="M12.1705 8.70884H4.28145C3.88699 8.70884 3.56426 8.38867 3.56426 7.99735C3.56426 7.60602 3.88699 7.28585 4.28145 7.28585H12.1705C12.565 7.28585 12.8877 7.60602 12.8877 7.99735C12.8877 8.38867 12.565 8.70884 12.1705 8.70884ZM12.1705 5.15136H6.43301C6.03856 5.15136 5.71582 4.83119 5.71582 4.43987C5.71582 4.04855 6.03856 3.72837 6.43301 3.72837H12.1705C12.565 3.72837 12.8877 4.04855 12.8877 4.43987C12.8877 4.83119 12.565 5.15136 12.1705 5.15136ZM12.8877 0.882394C12.8877 1.27372 12.565 1.59389 12.1705 1.59389H4.28145C3.88699 1.59389 3.56426 1.27372 3.56426 0.882394C3.56426 0.491071 3.88699 0.170898 4.28145 0.170898H12.1705C12.565 0.170898 12.8877 0.491071 12.8877 0.882394ZM0.480355 6.48898L2.54585 4.43987L0.480355 2.39076C0.413957 2.32489 0.361285 2.24669 0.325351 2.16063C0.289416 2.07456 0.270921 1.98232 0.270921 1.88916C0.270921 1.796 0.289416 1.70376 0.325351 1.61769C0.361285 1.53163 0.413957 1.45343 0.480355 1.38756C0.546753 1.32168 0.625579 1.26943 0.712334 1.23378C0.799088 1.19813 0.89207 1.17978 0.985971 1.17978C1.07987 1.17978 1.17286 1.19813 1.25961 1.23378C1.34636 1.26943 1.42519 1.32168 1.49159 1.38756L4.06629 3.94182C4.13278 4.00765 4.18552 4.08583 4.22151 4.1719C4.2575 4.25798 4.27603 4.35024 4.27603 4.44343C4.27603 4.53661 4.2575 4.62888 4.22151 4.71495C4.18552 4.80102 4.13278 4.87921 4.06629 4.94503L1.49159 7.4993C1.21189 7.77678 0.760057 7.77678 0.480355 7.4993C0.207824 7.22182 0.200652 6.76646 0.480355 6.48898Z" fill="url(#paint0_linear_179_688)"/>
<defs>
<linearGradient id="paint0_linear_179_688" x1="14.2419" y1="-0.566672" x2="4.82296" y2="12.9489" gradientUnits="userSpaceOnUse">
<stop stop-color="white"/>
<stop offset="1" stop-color="#FFECE2"/>
</linearGradient>
</defs>
</svg>
