<svg width="21" height="21" viewBox="0 0 21 21" fill="none" xmlns="http://www.w3.org/2000/svg">
<g clip-path="url(#clip0_179_3891)">
<path d="M9.24546 8.08097C9.12602 8.57866 8.50888 8.29995 8.76768 8.35968L4.84587 7.3643C4.62688 7.30457 4.50744 7.08559 4.56716 6.88651C4.62688 6.66753 4.84587 6.54808 5.04495 6.6078L8.96675 7.62309C9.16583 7.66291 9.28528 7.88189 9.24546 8.08097ZM8.94685 10.2708L5.02504 9.25552C4.80605 9.1958 4.58707 9.33515 4.54725 9.53423C4.48753 9.75321 4.62688 9.9722 4.82596 10.012L8.74777 11.0273C8.48897 10.9676 9.10611 11.2065 9.22555 10.7486C9.28528 10.5495 9.16583 10.3305 8.94685 10.2708ZM7.77229 12.6L5.02504 11.8833C4.80605 11.8236 4.58707 11.963 4.54725 12.162C4.48753 12.381 4.62688 12.6 4.82596 12.6398L7.57322 13.3565C7.31442 13.2968 7.93156 13.5357 8.051 13.0778C8.11072 12.8787 7.99128 12.6597 7.77229 12.6ZM18.5423 3.97999V14.4315C18.5423 14.6107 18.4229 14.7699 18.2437 14.8098L10.6788 16.701C10.6191 16.7209 10.5395 16.7209 10.4797 16.701L2.91483 14.8098C2.73566 14.7699 2.61621 14.6107 2.61621 14.4315V3.97999C2.61621 3.72119 2.8551 3.52212 3.1139 3.60175L10.5793 5.47307L18.0446 3.60175C18.3034 3.52212 18.5423 3.72119 18.5423 3.97999ZM10.1811 6.18974L3.41252 4.49759V14.113L10.1811 15.8051V6.18974ZM17.746 4.49759L10.9774 6.18974V15.8051L17.746 14.113V4.49759ZM16.5914 6.88651C16.5317 6.66753 16.3127 6.54808 16.1136 6.6078L12.1918 7.62309C11.9728 7.68282 11.8534 7.9018 11.9131 8.10088C12.0325 8.59857 12.6497 8.31986 12.3909 8.37959L16.3127 7.3643C16.5317 7.30457 16.6511 7.08559 16.5914 6.88651ZM16.5914 9.55414C16.5317 9.33515 16.3127 9.21571 16.1136 9.27543L12.1918 10.2907C11.9728 10.3504 11.8534 10.5694 11.9131 10.7685C12.0325 11.2463 12.6497 10.9875 12.3909 11.0472L16.3127 10.0319C16.5317 9.9722 16.6511 9.75321 16.5914 9.55414ZM15.4168 12.4806C15.3571 12.2616 15.1381 12.1421 14.9391 12.2019L12.1918 12.9185C11.9728 12.9783 11.8534 13.1972 11.9131 13.3963C12.0325 13.894 12.6497 13.6153 12.3909 13.675L15.1381 12.9783C15.3571 12.9185 15.4766 12.6995 15.4168 12.4806Z" fill="#EC6106"/>
<path d="M327.896 -184.944V150.301H-27.257V-184.944H327.896ZM329.488 -186.537H-28.8496V151.893H329.488V-186.537Z" fill="#0000FF"/>
</g>
<defs>
<clipPath id="clip0_179_3891">
<rect width="19.9077" height="19.9077" fill="white" transform="translate(0.620117 0.196899)"/>
</clipPath>
</defs>
</svg>
