<svg width="21" height="21" viewBox="0 0 21 21" fill="none" xmlns="http://www.w3.org/2000/svg">
<g clip-path="url(#clip0_610_928)">
<path d="M9.59057 8.13694C9.47112 8.63463 8.85399 8.35592 9.11279 8.41565L5.19098 7.42026C4.97199 7.36054 4.85255 7.14156 4.91227 6.94248C4.97199 6.7235 5.19098 6.60405 5.39005 6.66377L9.31186 7.67906C9.51094 7.71888 9.63038 7.93786 9.59057 8.13694ZM9.29195 10.3268L5.37015 9.31149C5.15116 9.25177 4.93218 9.39112 4.89236 9.5902C4.83264 9.80918 4.97199 10.0282 5.17107 10.068L9.09288 11.0833C8.83408 11.0236 9.45122 11.2624 9.57066 10.8046C9.63039 10.6055 9.51094 10.3865 9.29195 10.3268ZM8.1174 12.656L5.37015 11.9393C5.15116 11.8796 4.93218 12.0189 4.89236 12.218C4.83264 12.437 4.97199 12.656 5.17107 12.6958L7.91833 13.4125C7.65953 13.3527 8.27666 13.5916 8.39611 13.1338C8.45583 12.9347 8.33639 12.7157 8.1174 12.656ZM18.8874 4.03596V14.4875C18.8874 14.6667 18.768 14.8259 18.5888 14.8657L11.0239 16.757C10.9642 16.7769 10.8846 16.7769 10.8248 16.757L3.25993 14.8657C3.08076 14.8259 2.96132 14.6667 2.96132 14.4875V4.03596C2.96132 3.77716 3.20021 3.57809 3.45901 3.65772L10.9244 5.52904L18.3898 3.65772C18.6486 3.57809 18.8874 3.77716 18.8874 4.03596ZM10.5262 6.24571L3.75763 4.55356V14.169L10.5262 15.8611V6.24571ZM18.0911 4.55356L11.3225 6.24571V15.8611L18.0911 14.169V4.55356ZM16.9365 6.94248C16.8768 6.7235 16.6578 6.60405 16.4587 6.66377L12.5369 7.67906C12.3179 7.73879 12.1985 7.95777 12.2582 8.15685C12.3776 8.65454 12.9948 8.37583 12.736 8.43555L16.6578 7.42026C16.8768 7.36054 16.9962 7.14156 16.9365 6.94248ZM16.9365 9.61011C16.8768 9.39112 16.6578 9.27168 16.4587 9.3314L12.5369 10.3467C12.3179 10.4064 12.1985 10.6254 12.2582 10.8245C12.3776 11.3023 12.9948 11.0435 12.736 11.1032L16.6578 10.0879C16.8768 10.0282 16.9962 9.80918 16.9365 9.61011ZM15.7619 12.5365C15.7022 12.3175 15.4832 12.1981 15.2842 12.2578L12.5369 12.9745C12.3179 13.0342 12.1985 13.2532 12.2582 13.4523C12.3776 13.95 12.9948 13.6713 12.736 13.731L15.4832 13.0342C15.7022 12.9745 15.8217 12.7555 15.7619 12.5365Z" fill="white"/>
<path d="M328.24 -184.888V150.357H-26.9122V-184.888H328.24ZM329.833 -186.481H-28.5048V151.949H329.833V-186.481Z" fill="#0000FF"/>
</g>
<defs>
<clipPath id="clip0_610_928">
<rect width="19.9077" height="19.9077" fill="white" transform="translate(0.96489 0.252869)"/>
</clipPath>
</defs>
</svg>
