<svg width="20" height="20" viewBox="0 0 20 20" fill="none" xmlns="http://www.w3.org/2000/svg">
<path d="M12.7786 8.96428C12.7786 9.12567 12.7145 9.28045 12.6003 9.39457C12.4862 9.50869 12.3314 9.57281 12.17 9.57281H7.30188C7.14049 9.57281 6.98571 9.50869 6.87159 9.39457C6.75747 9.28045 6.69336 9.12567 6.69336 8.96428C6.69336 8.80289 6.75747 8.64812 6.87159 8.534C6.98571 8.41988 7.14049 8.35576 7.30188 8.35576H12.17C12.3314 8.35576 12.4862 8.41988 12.6003 8.534C12.7145 8.64812 12.7786 8.80289 12.7786 8.96428ZM12.17 10.7898H7.30188C7.14049 10.7898 6.98571 10.854 6.87159 10.9681C6.75747 11.0822 6.69336 11.237 6.69336 11.3984C6.69336 11.5598 6.75747 11.7145 6.87159 11.8287C6.98571 11.9428 7.14049 12.0069 7.30188 12.0069H12.17C12.3314 12.0069 12.4862 11.9428 12.6003 11.8287C12.7145 11.7145 12.7786 11.5598 12.7786 11.3984C12.7786 11.237 12.7145 11.0822 12.6003 10.9681C12.4862 10.854 12.3314 10.7898 12.17 10.7898ZM17.6467 10.1813C17.647 11.5471 17.2937 12.8897 16.6212 14.0784C15.9487 15.2671 14.9798 16.2615 13.809 16.9647C12.6382 17.6679 11.3052 18.056 9.93992 18.0912C8.5746 18.1264 7.22342 17.8075 6.0179 17.1656L3.42789 18.029C3.21345 18.1005 2.98333 18.1108 2.76333 18.0589C2.54332 18.007 2.34212 17.8948 2.18228 17.735C2.02244 17.5752 1.91028 17.374 1.85836 17.154C1.80644 16.934 1.81682 16.7038 1.88833 16.4894L2.75167 13.8994C2.18738 12.8385 1.8722 11.6629 1.83006 10.462C1.78792 9.26106 2.01993 8.06631 2.50846 6.96844C2.997 5.87056 3.72923 4.89841 4.64958 4.12578C5.56993 3.35315 6.6542 2.80033 7.82009 2.50931C8.98598 2.21828 10.2028 2.19669 11.3783 2.44617C12.5538 2.69565 13.657 3.20964 14.6042 3.94914C15.5514 4.68864 16.3176 5.6342 16.8448 6.71405C17.372 7.7939 17.6462 8.97966 17.6467 10.1813ZM16.4297 10.1813C16.4294 9.15454 16.1929 8.14159 15.7385 7.22083C15.2841 6.30007 14.6239 5.4962 13.8091 4.8714C12.9943 4.2466 12.0467 3.81763 11.0395 3.61766C10.0324 3.4177 8.99279 3.45211 8.0011 3.71823C7.0094 3.98435 6.09221 4.47504 5.3205 5.15235C4.54879 5.82966 3.94324 6.67543 3.5507 7.62422C3.15816 8.57301 2.98916 9.59938 3.05676 10.6239C3.12436 11.6485 3.42676 12.6438 3.94056 13.5328C3.98369 13.6074 4.01046 13.6903 4.01912 13.7761C4.02777 13.8619 4.01811 13.9485 3.99077 14.0302L3.04224 16.8751L5.88707 15.9265C5.94903 15.9054 6.01405 15.8946 6.07951 15.8946C6.18639 15.8948 6.29133 15.9231 6.38377 15.9767C7.40137 16.5655 8.55609 16.8758 9.73173 16.8766C10.9074 16.8773 12.0625 16.5684 13.0808 15.981C14.0992 15.3935 14.9448 14.5482 15.5327 13.5301C16.1206 12.512 16.43 11.357 16.4297 10.1813Z" fill="#BF4B00"/>
</svg>
