<svg width="20" height="20" viewBox="0 0 20 20" fill="none" xmlns="http://www.w3.org/2000/svg">
<g clip-path="url(#clip0_371_497)">
<path d="M17.836 14.034H17.5417V11.9743C17.5417 11.7402 17.4487 11.5157 17.2832 11.3502C17.1176 11.1846 16.8931 11.0916 16.659 11.0916H11.9512C11.7171 11.0916 11.4926 11.1846 11.3271 11.3502C11.1615 11.5157 11.0685 11.7402 11.0685 11.9743V14.034H3.41843V4.61844H15.7763V9.03197C15.7763 9.26608 15.8693 9.49059 16.0348 9.65613C16.2004 9.82167 16.4249 9.91467 16.659 9.91467C16.8931 9.91467 17.1176 9.82167 17.2832 9.65613C17.4487 9.49059 17.5417 9.26608 17.5417 9.03197V4.3242C17.5417 3.93402 17.3867 3.55982 17.1108 3.28392C16.8349 3.00803 16.4607 2.85303 16.0705 2.85303H3.12419C2.73401 2.85303 2.35981 3.00803 2.08391 3.28392C1.80801 3.55982 1.65302 3.93402 1.65302 4.3242V14.034H1.35878C1.12467 14.034 0.900152 14.127 0.734613 14.2925C0.569073 14.458 0.476074 14.6826 0.476074 14.9167C0.476074 15.1508 0.569073 15.3753 0.734613 15.5408C0.900152 15.7064 1.12467 15.7994 1.35878 15.7994H17.836C18.0701 15.7994 18.2946 15.7064 18.4601 15.5408C18.6257 15.3753 18.7187 15.1508 18.7187 14.9167C18.7187 14.6826 18.6257 14.458 18.4601 14.2925C18.2946 14.127 18.0701 14.034 17.836 14.034ZM12.834 12.857H15.7763V14.034H12.834V12.857Z" fill="white"/>
</g>
<defs>
<clipPath id="clip0_371_497">
<rect width="18.8311" height="18.8311" fill="white" transform="translate(0.181641 0.20459)"/>
</clipPath>
</defs>
</svg>
