<svg width="13" height="14" viewBox="0 0 13 14" fill="none" xmlns="http://www.w3.org/2000/svg">
<path d="M6.39699 1.81995C3.45156 1.81995 1.06641 4.21044 1.06641 7.15586C1.06641 10.1013 3.45156 12.4918 6.39699 12.4918C9.34775 12.4918 11.7382 10.1013 11.7382 7.15586C11.7382 4.21044 9.34775 1.81995 6.39699 1.81995ZM6.40232 11.4246C4.04385 11.4246 2.13359 9.51434 2.13359 7.15586C2.13359 4.79739 4.04385 2.88713 6.40232 2.88713C8.7608 2.88713 10.6711 4.79739 10.6711 7.15586C10.6711 9.51434 8.7608 11.4246 6.40232 11.4246Z" fill="url(#paint0_linear_249_3250)"/>
<path d="M6.6705 4.48792H5.87012V7.68946L8.67147 9.37028L9.07167 8.71396L6.6705 7.28927V4.48792Z" fill="url(#paint1_linear_249_3250)"/>
<defs>
<linearGradient id="paint0_linear_249_3250" x1="11.7382" y1="7.64771" x2="1.06641" y2="7.64771" gradientUnits="userSpaceOnUse">
<stop stop-color="#FD9512"/>
<stop offset="1" stop-color="#FFC770"/>
</linearGradient>
<linearGradient id="paint1_linear_249_3250" x1="9.07167" y1="7.15412" x2="5.87012" y2="7.15412" gradientUnits="userSpaceOnUse">
<stop stop-color="#FD9512"/>
<stop offset="1" stop-color="#FFC770"/>
</linearGradient>
</defs>
</svg>
