<svg width="13" height="14" viewBox="0 0 13 14" fill="none" xmlns="http://www.w3.org/2000/svg">
<path d="M6.39699 1.64209C3.45156 1.64209 1.06641 4.03258 1.06641 6.97801C1.06641 9.92343 3.45156 12.3139 6.39699 12.3139C9.34775 12.3139 11.7382 9.92343 11.7382 6.97801C11.7382 4.03258 9.34775 1.64209 6.39699 1.64209ZM6.40232 11.2467C4.04385 11.2467 2.13359 9.33648 2.13359 6.97801C2.13359 4.61953 4.04385 2.70927 6.40232 2.70927C8.7608 2.70927 10.6711 4.61953 10.6711 6.97801C10.6711 9.33648 8.7608 11.2467 6.40232 11.2467Z" fill="#EC650A"/>
<path d="M6.6705 4.31006H5.87012V7.51161L8.67147 9.19242L9.07167 8.5361L6.6705 7.11141V4.31006Z" fill="#EC650A"/>
</svg>
