<svg width="17" height="17" viewBox="0 0 17 17" fill="none" xmlns="http://www.w3.org/2000/svg">
<path d="M13.7885 3.7677H11.5577V3.02411C11.5577 2.56395 11.3749 2.12263 11.0496 1.79725C10.7242 1.47186 10.2829 1.28906 9.82269 1.28906H6.84833C6.38816 1.28906 5.94685 1.47186 5.62146 1.79725C5.29608 2.12263 5.11328 2.56395 5.11328 3.02411V3.7677H2.88251C2.68529 3.7677 2.49616 3.84604 2.35671 3.98549C2.21726 4.12494 2.13892 4.31408 2.13892 4.51129C2.13892 4.7085 2.21726 4.89764 2.35671 5.03709C2.49616 5.17654 2.68529 5.25488 2.88251 5.25488H3.13037V13.6823C3.13037 14.0109 3.26094 14.3262 3.49336 14.5586C3.72578 14.791 4.041 14.9216 4.36969 14.9216H12.3013C12.63 14.9216 12.9452 14.791 13.1777 14.5586C13.4101 14.3262 13.5406 14.0109 13.5406 13.6823V5.25488H13.7885C13.9857 5.25488 14.1749 5.17654 14.3143 5.03709C14.4538 4.89764 14.5321 4.7085 14.5321 4.51129C14.5321 4.31408 14.4538 4.12494 14.3143 3.98549C14.1749 3.84604 13.9857 3.7677 13.7885 3.7677ZM6.60046 3.02411C6.60046 2.95837 6.62658 2.89533 6.67306 2.84884C6.71954 2.80236 6.78259 2.77625 6.84833 2.77625H9.82269C9.88843 2.77625 9.95148 2.80236 9.99796 2.84884C10.0444 2.89533 10.0706 2.95837 10.0706 3.02411V3.7677H6.60046V3.02411ZM12.0535 13.4344H4.61755V5.25488H12.0535V13.4344ZM7.59192 7.23779V11.2036C7.59192 11.4008 7.51358 11.59 7.37413 11.7294C7.23468 11.8689 7.04554 11.9472 6.84833 11.9472C6.65111 11.9472 6.46198 11.8689 6.32253 11.7294C6.18308 11.59 6.10474 11.4008 6.10474 11.2036V7.23779C6.10474 7.04058 6.18308 6.85144 6.32253 6.71199C6.46198 6.57254 6.65111 6.4942 6.84833 6.4942C7.04554 6.4942 7.23468 6.57254 7.37413 6.71199C7.51358 6.85144 7.59192 7.04058 7.59192 7.23779ZM10.5663 7.23779V11.2036C10.5663 11.4008 10.4879 11.59 10.3485 11.7294C10.209 11.8689 10.0199 11.9472 9.82269 11.9472C9.62548 11.9472 9.43635 11.8689 9.29689 11.7294C9.15744 11.59 9.0791 11.4008 9.0791 11.2036V7.23779C9.0791 7.04058 9.15744 6.85144 9.29689 6.71199C9.43635 6.57254 9.62548 6.4942 9.82269 6.4942C10.0199 6.4942 10.209 6.57254 10.3485 6.71199C10.4879 6.85144 10.5663 7.04058 10.5663 7.23779Z" fill="#9C663B"/>
</svg>
