<svg width="17" height="17" viewBox="0 0 17 17" fill="none" xmlns="http://www.w3.org/2000/svg">
<path d="M14.7793 4.77031L11.8737 1.86532C11.7771 1.7687 11.6624 1.69205 11.5362 1.63976C11.4099 1.58746 11.2747 1.56055 11.138 1.56055C11.0014 1.56055 10.8661 1.58746 10.7399 1.63976C10.6136 1.69205 10.499 1.7687 10.4023 1.86532L2.38502 9.88266C2.288 9.9789 2.21108 10.0935 2.15873 10.2197C2.10638 10.346 2.07965 10.4813 2.08008 10.618V13.5236C2.08008 13.7995 2.18968 14.0641 2.38478 14.2592C2.57987 14.4543 2.84447 14.5639 3.12037 14.5639H14.0433C14.1813 14.5639 14.3136 14.5091 14.4111 14.4116C14.5087 14.314 14.5635 14.1817 14.5635 14.0438C14.5635 13.9058 14.5087 13.7735 14.4111 13.676C14.3136 13.5784 14.1813 13.5236 14.0433 13.5236H7.49736L14.7793 6.24166C14.876 6.14506 14.9526 6.03037 15.0049 5.90414C15.0572 5.77791 15.0841 5.64262 15.0841 5.50599C15.0841 5.36936 15.0572 5.23406 15.0049 5.10783C14.9526 4.98161 14.876 4.86692 14.7793 4.77031ZM5.15672 12.2233L11.0304 6.34959L12.1156 7.43409L6.24122 13.3084L5.15672 12.2233ZM10.2931 5.61359L4.42072 11.4879L3.33558 10.4028L9.20992 4.5291L10.2931 5.61359ZM3.12037 11.6583L4.98572 13.5236H3.12037V11.6583Z" fill="#9C663B"/>
</svg>
