<svg width="20" height="21" viewBox="0 0 20 21" fill="none" xmlns="http://www.w3.org/2000/svg">
<path d="M18.127 4.19043H12.502C12.0168 4.19043 11.5383 4.30338 11.1044 4.52034C10.6705 4.73731 10.293 5.05232 10.002 5.44043C9.71087 5.05232 9.33342 4.73731 8.8995 4.52034C8.46557 4.30338 7.98709 4.19043 7.50195 4.19043H1.87695C1.71119 4.19043 1.55222 4.25628 1.43501 4.37349C1.3178 4.4907 1.25195 4.64967 1.25195 4.81543V16.0654C1.25195 16.2312 1.3178 16.3902 1.43501 16.5074C1.55222 16.6246 1.71119 16.6904 1.87695 16.6904H7.50195C7.99923 16.6904 8.47615 16.888 8.82778 17.2396C9.17941 17.5912 9.37695 18.0681 9.37695 18.5654C9.37695 18.7312 9.4428 18.8902 9.56001 19.0074C9.67722 19.1246 9.83619 19.1904 10.002 19.1904C10.1677 19.1904 10.3267 19.1246 10.4439 19.0074C10.5611 18.8902 10.627 18.7312 10.627 18.5654C10.627 18.0681 10.8245 17.5912 11.1761 17.2396C11.5278 16.888 12.0047 16.6904 12.502 16.6904H18.127C18.2927 16.6904 18.4517 16.6246 18.5689 16.5074C18.6861 16.3902 18.752 16.2312 18.752 16.0654V4.81543C18.752 4.64967 18.6861 4.4907 18.5689 4.37349C18.4517 4.25628 18.2927 4.19043 18.127 4.19043ZM7.50195 15.4404H2.50195V5.44043H7.50195C7.99923 5.44043 8.47615 5.63797 8.82778 5.9896C9.17941 6.34123 9.37695 6.81815 9.37695 7.31543V16.0654C8.83653 15.6588 8.17828 15.4394 7.50195 15.4404ZM17.502 15.4404H12.502C11.8256 15.4394 11.1674 15.6588 10.627 16.0654V7.31543C10.627 6.81815 10.8245 6.34123 11.1761 5.9896C11.5278 5.63797 12.0047 5.44043 12.502 5.44043H17.502V15.4404ZM12.502 7.31543H15.627C15.7927 7.31543 15.9517 7.38128 16.0689 7.49849C16.1861 7.6157 16.252 7.77467 16.252 7.94043C16.252 8.10619 16.1861 8.26516 16.0689 8.38237C15.9517 8.49958 15.7927 8.56543 15.627 8.56543H12.502C12.3362 8.56543 12.1772 8.49958 12.06 8.38237C11.9428 8.26516 11.877 8.10619 11.877 7.94043C11.877 7.77467 11.9428 7.6157 12.06 7.49849C12.1772 7.38128 12.3362 7.31543 12.502 7.31543ZM16.252 10.4404C16.252 10.6062 16.1861 10.7652 16.0689 10.8824C15.9517 10.9996 15.7927 11.0654 15.627 11.0654H12.502C12.3362 11.0654 12.1772 10.9996 12.06 10.8824C11.9428 10.7652 11.877 10.6062 11.877 10.4404C11.877 10.2747 11.9428 10.1157 12.06 9.99849C12.1772 9.88128 12.3362 9.81543 12.502 9.81543H15.627C15.7927 9.81543 15.9517 9.88128 16.0689 9.99849C16.1861 10.1157 16.252 10.2747 16.252 10.4404ZM16.252 12.9404C16.252 13.1062 16.1861 13.2652 16.0689 13.3824C15.9517 13.4996 15.7927 13.5654 15.627 13.5654H12.502C12.3362 13.5654 12.1772 13.4996 12.06 13.3824C11.9428 13.2652 11.877 13.1062 11.877 12.9404C11.877 12.7747 11.9428 12.6157 12.06 12.4985C12.1772 12.3813 12.3362 12.3154 12.502 12.3154H15.627C15.7927 12.3154 15.9517 12.3813 16.0689 12.4985C16.1861 12.6157 16.252 12.7747 16.252 12.9404Z" fill="white"/>
</svg>
