<svg width="14" height="15" viewBox="0 0 14 15" fill="none" xmlns="http://www.w3.org/2000/svg">
<path d="M7.77494 1.58656C7.72147 1.5421 7.65808 1.51114 7.59014 1.49631C7.52219 1.48148 7.45167 1.4832 7.38453 1.50132C7.31739 1.51945 7.25559 1.55346 7.20434 1.60047C7.1531 1.64749 7.1139 1.70613 7.09007 1.77147L5.8971 5.04726L4.587 3.77783C4.543 3.73515 4.49046 3.70229 4.43284 3.6814C4.37522 3.6605 4.31382 3.65206 4.2527 3.65662C4.19158 3.66118 4.13212 3.67864 4.07823 3.70785C4.02435 3.73706 3.97726 3.77736 3.94009 3.82609C2.76555 5.36502 2.16907 6.91317 2.16907 8.42716C2.16907 9.69274 2.67182 10.9065 3.56672 11.8014C4.46162 12.6963 5.67537 13.199 6.94095 13.199C8.20653 13.199 9.42028 12.6963 10.3152 11.8014C11.2101 10.9065 11.7128 9.69274 11.7128 8.42716C11.7128 5.20343 8.9587 2.57076 7.77494 1.58656ZM9.97164 8.93363C9.85915 9.56195 9.55685 10.1407 9.10545 10.592C8.65405 11.0433 8.07522 11.3455 7.44688 11.4578C7.42306 11.4619 7.39892 11.4639 7.37476 11.4638C7.26594 11.4638 7.16111 11.4229 7.08105 11.3492C7.00099 11.2755 6.95156 11.1744 6.94255 11.0659C6.93354 10.9575 6.96562 10.8496 7.03242 10.7637C7.09921 10.6778 7.19586 10.6201 7.30318 10.6022C8.2017 10.4509 8.96412 9.68845 9.11649 8.7883C9.13576 8.67483 9.19932 8.57366 9.29318 8.50706C9.38705 8.44045 9.50353 8.41385 9.617 8.43312C9.73047 8.45239 9.83164 8.51595 9.89825 8.60982C9.96485 8.70368 9.99145 8.82016 9.97218 8.93363H9.97164Z" fill="url(#paint0_linear_402_1939)"/>
<defs>
<linearGradient id="paint0_linear_402_1939" x1="1.14474" y1="0.474497" x2="14.5485" y2="11.08" gradientUnits="userSpaceOnUse">
<stop stop-color="#EC6106"/>
<stop offset="1" stop-color="#EB660B"/>
</linearGradient>
</defs>
</svg>
