<svg width="25" height="25" viewBox="0 0 25 25" fill="none" xmlns="http://www.w3.org/2000/svg">
<path d="M20.6387 5.44385V9.19385C20.6387 9.39276 20.5597 9.58353 20.419 9.72418C20.2784 9.86483 20.0876 9.94385 19.8887 9.94385C19.6898 9.94385 19.499 9.86483 19.3583 9.72418C19.2177 9.58353 19.1387 9.39276 19.1387 9.19385V6.19385H16.1387C15.9398 6.19385 15.749 6.11483 15.6083 5.97418C15.4677 5.83353 15.3887 5.64276 15.3887 5.44385C15.3887 5.24494 15.4677 5.05417 15.6083 4.91352C15.749 4.77287 15.9398 4.69385 16.1387 4.69385H19.8887C20.0876 4.69385 20.2784 4.77287 20.419 4.91352C20.5597 5.05417 20.6387 5.24494 20.6387 5.44385ZM8.63867 19.6938H5.63867V16.6938C5.63867 16.4949 5.55965 16.3042 5.419 16.1635C5.27835 16.0229 5.08758 15.9438 4.88867 15.9438C4.68976 15.9438 4.49899 16.0229 4.35834 16.1635C4.21769 16.3042 4.13867 16.4949 4.13867 16.6938V20.4438C4.13867 20.6428 4.21769 20.8335 4.35834 20.9742C4.49899 21.1148 4.68976 21.1938 4.88867 21.1938H8.63867C8.83758 21.1938 9.02835 21.1148 9.169 20.9742C9.30965 20.8335 9.38867 20.6428 9.38867 20.4438C9.38867 20.2449 9.30965 20.0542 9.169 19.9135C9.02835 19.7729 8.83758 19.6938 8.63867 19.6938ZM19.8887 15.9438C19.6898 15.9438 19.499 16.0229 19.3583 16.1635C19.2177 16.3042 19.1387 16.4949 19.1387 16.6938V19.6938H16.1387C15.9398 19.6938 15.749 19.7729 15.6083 19.9135C15.4677 20.0542 15.3887 20.2449 15.3887 20.4438C15.3887 20.6428 15.4677 20.8335 15.6083 20.9742C15.749 21.1148 15.9398 21.1938 16.1387 21.1938H19.8887C20.0876 21.1938 20.2784 21.1148 20.419 20.9742C20.5597 20.8335 20.6387 20.6428 20.6387 20.4438V16.6938C20.6387 16.4949 20.5597 16.3042 20.419 16.1635C20.2784 16.0229 20.0876 15.9438 19.8887 15.9438ZM8.63867 4.69385H4.88867C4.68976 4.69385 4.49899 4.77287 4.35834 4.91352C4.21769 5.05417 4.13867 5.24494 4.13867 5.44385V9.19385C4.13867 9.39276 4.21769 9.58353 4.35834 9.72418C4.49899 9.86483 4.68976 9.94385 4.88867 9.94385C5.08758 9.94385 5.27835 9.86483 5.419 9.72418C5.55965 9.58353 5.63867 9.39276 5.63867 9.19385V6.19385H8.63867C8.83758 6.19385 9.02835 6.11483 9.169 5.97418C9.30965 5.83353 9.38867 5.64276 9.38867 5.44385C9.38867 5.24494 9.30965 5.05417 9.169 4.91352C9.02835 4.77287 8.83758 4.69385 8.63867 4.69385Z" fill="black"/>
</svg>
