<svg width="17" height="17" viewBox="0 0 17 17" fill="none" xmlns="http://www.w3.org/2000/svg">
<path d="M9.64746 11.6884C9.64746 11.8367 9.60348 11.9817 9.52106 12.105C9.43865 12.2284 9.32152 12.3245 9.18447 12.3813C9.04743 12.438 8.89663 12.4529 8.75114 12.4239C8.60566 12.395 8.47202 12.3236 8.36713 12.2187C8.26224 12.1138 8.19081 11.9802 8.16187 11.8347C8.13293 11.6892 8.14779 11.5384 8.20455 11.4013C8.26132 11.2643 8.35745 11.1472 8.48078 11.0648C8.60412 10.9823 8.74913 10.9384 8.89746 10.9384C9.09637 10.9384 9.28714 11.0174 9.42779 11.158C9.56844 11.2987 9.64746 11.4894 9.64746 11.6884ZM8.89746 4.93835C7.51871 4.93835 6.39746 5.94773 6.39746 7.18835V7.43835C6.39746 7.57096 6.45014 7.69814 6.54391 7.79191C6.63768 7.88567 6.76485 7.93835 6.89746 7.93835C7.03007 7.93835 7.15725 7.88567 7.25102 7.79191C7.34478 7.69814 7.39746 7.57096 7.39746 7.43835V7.18835C7.39746 6.50085 8.07059 5.93835 8.89746 5.93835C9.72434 5.93835 10.3975 6.50085 10.3975 7.18835C10.3975 7.87585 9.72434 8.43835 8.89746 8.43835C8.76485 8.43835 8.63768 8.49103 8.54391 8.5848C8.45014 8.67857 8.39746 8.80574 8.39746 8.93835V9.43835C8.39746 9.57096 8.45014 9.69814 8.54391 9.79191C8.63768 9.88567 8.76485 9.93835 8.89746 9.93835C9.03007 9.93835 9.15725 9.88567 9.25102 9.79191C9.34478 9.69814 9.39746 9.57096 9.39746 9.43835V9.39335C10.5375 9.18398 11.3975 8.2746 11.3975 7.18835C11.3975 5.94773 10.2762 4.93835 8.89746 4.93835ZM15.3975 8.43835C15.3975 9.72393 15.0162 10.9806 14.302 12.0496C13.5878 13.1185 12.5726 13.9516 11.3849 14.4436C10.1972 14.9355 8.89025 15.0643 7.62938 14.8135C6.3685 14.5627 5.21031 13.9436 4.30127 13.0345C3.39223 12.1255 2.77316 10.9673 2.52236 9.70644C2.27156 8.44556 2.40028 7.13863 2.89225 5.95091C3.38422 4.76319 4.21734 3.74803 5.28626 3.0338C6.35518 2.31957 7.61188 1.93835 8.89746 1.93835C10.6208 1.94017 12.2731 2.62558 13.4916 3.84417C14.7102 5.06276 15.3956 6.715 15.3975 8.43835ZM14.3975 8.43835C14.3975 7.35056 14.0749 6.28719 13.4705 5.38272C12.8662 4.47825 12.0072 3.7733 11.0022 3.35702C9.99723 2.94073 8.89136 2.83182 7.82447 3.04404C6.75757 3.25625 5.77756 3.78008 5.00838 4.54927C4.23919 5.31846 3.71536 6.29846 3.50314 7.36536C3.29093 8.43225 3.39984 9.53812 3.81613 10.5431C4.23241 11.5481 4.93736 12.4071 5.84183 13.0114C6.7463 13.6158 7.80967 13.9384 8.89746 13.9384C10.3556 13.9367 11.7536 13.3567 12.7847 12.3256C13.8158 11.2945 14.3958 9.89654 14.3975 8.43835Z" fill="white"/>
</svg>
