<svg width="17" height="17" viewBox="0 0 17 17" fill="none" xmlns="http://www.w3.org/2000/svg">
<path d="M9.53779 12.9801H13.3878V7.4174L8.89612 4.06079L4.40443 7.4174V12.9801H8.25445V9.28068H9.53779V12.9801ZM14.6711 13.5967C14.6711 13.7602 14.6035 13.917 14.4832 14.0327C14.3629 14.1483 14.1997 14.2133 14.0295 14.2133H3.76276C3.59258 14.2133 3.42937 14.1483 3.30903 14.0327C3.1887 13.917 3.12109 13.7602 3.12109 13.5967V7.11652C3.12103 7.02256 3.14331 6.92983 3.18623 6.84541C3.22916 6.76099 3.2916 6.68711 3.36878 6.62942L8.50213 2.79312C8.61477 2.70892 8.75341 2.66321 8.89612 2.66321C9.03883 2.66321 9.17746 2.70892 9.2901 2.79312L14.4235 6.62942C14.5006 6.68711 14.5631 6.76099 14.606 6.84541C14.6489 6.92983 14.6712 7.02256 14.6711 7.11652V13.5967Z" fill="url(#paint0_linear_214_20064)"/>
<defs>
<linearGradient id="paint0_linear_214_20064" x1="1.88143" y1="1.66543" x2="15.4573" y2="14.8482" gradientUnits="userSpaceOnUse">
<stop stop-color="white"/>
<stop offset="1" stop-color="#FFECE2"/>
</linearGradient>
</defs>
</svg>
