<svg width="12" height="13" viewBox="0 0 12 13" fill="none" xmlns="http://www.w3.org/2000/svg">
<path d="M8.42621 11.2634C8.42621 11.4095 8.36814 11.5497 8.26479 11.6531C8.16143 11.7564 8.02125 11.8145 7.87508 11.8145H4.20092C4.05475 11.8145 3.91457 11.7564 3.81122 11.6531C3.70786 11.5497 3.6498 11.4095 3.6498 11.2634C3.6498 11.1172 3.70786 10.977 3.81122 10.8737C3.91457 10.7703 4.05475 10.7122 4.20092 10.7122H7.87508C8.02125 10.7122 8.16143 10.7703 8.26479 10.8737C8.36814 10.977 8.42621 11.1172 8.42621 11.2634ZM10.2633 5.38471C10.265 6.02502 10.1203 6.65725 9.84037 7.23313C9.56043 7.80901 9.15261 8.31331 8.64804 8.70753C8.5797 8.75959 8.52419 8.82659 8.48574 8.90341C8.44729 8.98023 8.42693 9.06483 8.42621 9.15073V9.24258C8.42621 9.4862 8.32943 9.71983 8.15718 9.89209C7.98492 10.0643 7.75128 10.1611 7.50767 10.1611H4.56834C4.32473 10.1611 4.09109 10.0643 3.91883 9.89209C3.74657 9.71983 3.6498 9.4862 3.6498 9.24258V9.15073C3.6497 9.06625 3.63018 8.98293 3.59275 8.9072C3.55532 8.83147 3.50099 8.76535 3.43394 8.71396C2.93075 8.32202 2.5233 7.82076 2.24242 7.24811C1.96155 6.67545 1.8146 6.04642 1.81271 5.40859C1.80031 3.12005 3.6498 1.21453 5.9365 1.15942C6.49986 1.14589 7.06023 1.24517 7.58464 1.45145C8.10905 1.65772 8.5869 1.9668 8.99007 2.36052C9.39323 2.75423 9.71357 3.22461 9.93223 3.74397C10.1509 4.26334 10.2635 4.82119 10.2633 5.38471ZM9.16104 5.38471C9.16117 4.96813 9.07794 4.55574 8.91628 4.17181C8.75461 3.78788 8.51777 3.44017 8.2197 3.14916C7.92162 2.85814 7.56834 2.62971 7.18064 2.47729C6.79295 2.32487 6.37868 2.25156 5.96222 2.26167C4.27257 2.30209 2.90578 3.71067 2.91496 5.40216C2.91654 5.87357 3.02527 6.33846 3.23293 6.76166C3.4406 7.18487 3.74176 7.55533 4.11366 7.84502C4.30101 7.98962 4.45501 8.17289 4.56518 8.38236C4.67534 8.59182 4.73907 8.82256 4.75205 9.05887H7.32855C7.34178 8.8221 7.40561 8.59091 7.51573 8.38089C7.62585 8.17087 7.77971 7.98689 7.96694 7.84135C8.3399 7.54983 8.64135 7.17697 8.8483 6.75122C9.05524 6.32548 9.16221 5.85809 9.16104 5.38471ZM8.23929 5.14038C8.19053 4.728 8.02746 4.33746 7.7685 4.01284C7.50954 3.68823 7.16499 3.44247 6.77376 3.3033C6.63701 3.25862 6.48821 3.26918 6.35914 3.33273C6.23007 3.39628 6.13097 3.50777 6.083 3.64341C6.03503 3.77904 6.042 3.92805 6.10242 4.05861C6.16283 4.18917 6.2719 4.29094 6.40634 4.34217C6.60294 4.41108 6.77635 4.53363 6.90694 4.69595C7.03753 4.85828 7.1201 5.0539 7.1453 5.26071C7.16138 5.40602 7.23453 5.539 7.34865 5.63038C7.40516 5.67563 7.47003 5.70931 7.53955 5.72949C7.60907 5.74967 7.68189 5.75596 7.75384 5.74799C7.82579 5.74003 7.89547 5.71798 7.9589 5.68309C8.02233 5.6482 8.07826 5.60116 8.12351 5.54465C8.16876 5.48814 8.20244 5.42327 8.22262 5.35375C8.2428 5.28423 8.24908 5.21141 8.24112 5.13946L8.23929 5.14038Z" fill="url(#paint0_linear_234_7581)"/>
<defs>
<linearGradient id="paint0_linear_234_7581" x1="0.905645" y1="0.237633" x2="13.0205" y2="9.56677" gradientUnits="userSpaceOnUse">
<stop stop-color="#EC6106"/>
<stop offset="1" stop-color="#EB660B"/>
</linearGradient>
</defs>
</svg>
