<svg width="17" height="17" viewBox="0 0 17 17" fill="none" xmlns="http://www.w3.org/2000/svg">
<path d="M9.47347 8.21047L14.9415 5.34656L9.82253 1.59098C9.50918 1.47635 9.10194 1.51264 8.82316 1.68602C8.59448 1.82772 8.32145 2.12839 8.32145 2.75624V12.4701H9.47347V8.21047ZM9.47347 2.73608L12.778 5.17951L9.47347 6.90984V2.73608ZM15.8096 11.894C15.8096 13.864 12.8379 15.3501 8.89746 15.3501C4.95698 15.3501 1.98535 13.864 1.98535 11.894C1.98535 10.2248 4.12177 8.90744 7.16943 8.54225V9.70176C4.72773 10.0255 3.13737 11.0007 3.13737 11.894C3.13737 12.9839 5.50246 14.1981 8.89746 14.1981C12.2925 14.1981 14.6576 12.9839 14.6576 11.894C14.6576 11.0007 13.0672 10.0255 10.6255 9.70176V8.54225C13.6732 8.90744 15.8096 10.2248 15.8096 11.894Z" fill="white"/>
</svg>
