<svg width="9" height="10" viewBox="0 0 9 10" fill="none" xmlns="http://www.w3.org/2000/svg">
<path d="M7.513 3.6965H6.17133V2.69025C6.17133 2.1565 5.95929 1.6446 5.58187 1.26719C5.20446 0.889766 4.69256 0.677734 4.15881 0.677734C3.62506 0.677734 3.11317 0.889766 2.73575 1.26719C2.35833 1.6446 2.1463 2.1565 2.1463 2.69025V3.6965H0.804626C0.626709 3.6965 0.456079 3.76718 0.330273 3.89299C0.204466 4.01879 0.133789 4.18942 0.133789 4.36734V9.0632C0.133789 9.24112 0.204466 9.41175 0.330273 9.53756C0.456079 9.66336 0.626709 9.73404 0.804626 9.73404H7.513C7.69092 9.73404 7.86155 9.66336 7.98735 9.53756C8.11316 9.41175 8.18384 9.24112 8.18384 9.0632V4.36734C8.18384 4.18942 8.11316 4.01879 7.98735 3.89299C7.86155 3.76718 7.69092 3.6965 7.513 3.6965ZM2.81714 2.69025C2.81714 2.33441 2.95849 1.99315 3.21011 1.74154C3.46172 1.48993 3.80298 1.34857 4.15881 1.34857C4.51465 1.34857 4.85591 1.48993 5.10752 1.74154C5.35913 1.99315 5.50049 2.33441 5.50049 2.69025V3.6965H2.81714V2.69025Z" fill="#C2C2C2"/>
</svg>
