<svg width="19" height="19" viewBox="0 0 19 19" fill="none" xmlns="http://www.w3.org/2000/svg">
<path d="M15.8599 4.13H2.67088C2.52513 4.13 2.38535 4.1879 2.2823 4.29096C2.17924 4.39402 2.12134 4.5338 2.12134 4.67955V14.0218C2.12134 14.3133 2.23713 14.5928 2.44325 14.7989C2.64937 15.005 2.92893 15.1208 3.22042 15.1208H15.3103C15.6018 15.1208 15.8814 15.005 16.0875 14.7989C16.2936 14.5928 16.4094 14.3133 16.4094 14.0218V4.67955C16.4094 4.5338 16.3515 4.39402 16.2485 4.29096C16.1454 4.1879 16.0056 4.13 15.8599 4.13ZM14.4469 5.22909L9.26538 9.97919L4.08389 5.22909H14.4469ZM15.3103 14.0218H3.22042V5.92907L8.89376 11.1298C8.99514 11.2229 9.12776 11.2745 9.26538 11.2745C9.40301 11.2745 9.53563 11.2229 9.63701 11.1298L15.3103 5.92907V14.0218Z" fill="#F8740B"/>
</svg>
