<svg width="19" height="19" viewBox="0 0 19 19" fill="none" xmlns="http://www.w3.org/2000/svg">
<path d="M13.1127 8.37335C13.1127 8.5191 13.0548 8.65888 12.9517 8.76194C12.8487 8.86499 12.7089 8.92289 12.5631 8.92289H8.16681C8.02106 8.92289 7.88128 8.86499 7.77822 8.76194C7.67516 8.65888 7.61727 8.5191 7.61727 8.37335C7.61727 8.2276 7.67516 8.08782 7.77822 7.98477C7.88128 7.88171 8.02106 7.82381 8.16681 7.82381H12.5631C12.7089 7.82381 12.8487 7.88171 12.9517 7.98477C13.0548 8.08782 13.1127 8.2276 13.1127 8.37335ZM12.5631 10.022H8.16681C8.02106 10.022 7.88128 10.0799 7.77822 10.1829C7.67516 10.286 7.61727 10.4258 7.61727 10.5715C7.61727 10.7173 7.67516 10.857 7.77822 10.9601C7.88128 11.0632 8.02106 11.1211 8.16681 11.1211H12.5631C12.7089 11.1211 12.8487 11.0632 12.9517 10.9601C13.0548 10.857 13.1127 10.7173 13.1127 10.5715C13.1127 10.4258 13.0548 10.286 12.9517 10.1829C12.8487 10.0799 12.7089 10.022 12.5631 10.022ZM15.8604 3.97701V14.9679C15.8604 15.2594 15.7446 15.5389 15.5385 15.745C15.3324 15.9511 15.0528 16.0669 14.7613 16.0669H3.77047C3.47898 16.0669 3.19942 15.9511 2.9933 15.745C2.78718 15.5389 2.67139 15.2594 2.67139 14.9679V3.97701C2.67139 3.68552 2.78718 3.40596 2.9933 3.19984C3.19942 2.99373 3.47898 2.87793 3.77047 2.87793H14.7613C15.0528 2.87793 15.3324 2.99373 15.5385 3.19984C15.7446 3.40596 15.8604 3.68552 15.8604 3.97701ZM3.77047 14.9679H5.4191V3.97701H3.77047V14.9679ZM14.7613 14.9679V3.97701H6.51818V14.9679H14.7613Z" fill="#F8740B"/>
</svg>
