<svg width="31" height="31" viewBox="0 0 31 31" fill="none" xmlns="http://www.w3.org/2000/svg">
<path d="M25.0064 6.55638V25.0792C25.0064 25.5704 24.8113 26.0416 24.4639 26.389C24.1165 26.7363 23.6454 26.9315 23.1542 26.9315H18.5235C18.0322 26.9315 17.5611 26.7363 17.2137 26.389C16.8663 26.0416 16.6712 25.5704 16.6712 25.0792V6.55638C16.6712 6.06513 16.8663 5.59399 17.2137 5.24662C17.5611 4.89925 18.0322 4.7041 18.5235 4.7041H23.1542C23.6454 4.7041 24.1165 4.89925 24.4639 5.24662C24.8113 5.59399 25.0064 6.06513 25.0064 6.55638ZM11.1143 4.7041H6.48363C5.99237 4.7041 5.52124 4.89925 5.17387 5.24662C4.8265 5.59399 4.63135 6.06513 4.63135 6.55638V25.0792C4.63135 25.5704 4.8265 26.0416 5.17387 26.389C5.52124 26.7363 5.99237 26.9315 6.48363 26.9315H11.1143C11.6056 26.9315 12.0767 26.7363 12.4241 26.389C12.7715 26.0416 12.9666 25.5704 12.9666 25.0792V6.55638C12.9666 6.06513 12.7715 5.59399 12.4241 5.24662C12.0767 4.89925 11.6056 4.7041 11.1143 4.7041Z" fill="#EC650A"/>
</svg>
