<svg width="25" height="25" viewBox="0 0 25 25" fill="none" xmlns="http://www.w3.org/2000/svg">
<path d="M22.5347 8.00203L10.5347 20.002C10.4301 20.1069 10.306 20.1901 10.1692 20.2469C10.0325 20.3037 9.88586 20.3329 9.73779 20.3329C9.58973 20.3329 9.44312 20.3037 9.30637 20.2469C9.16962 20.1901 9.04543 20.1069 8.94092 20.002L3.69092 14.752C3.58627 14.6474 3.50326 14.5231 3.44662 14.3864C3.38999 14.2497 3.36084 14.1031 3.36084 13.9552C3.36084 13.8072 3.38999 13.6606 3.44662 13.5239C3.50326 13.3872 3.58627 13.2629 3.69092 13.1583C3.79556 13.0536 3.9198 12.9706 4.05653 12.914C4.19325 12.8574 4.3398 12.8282 4.48779 12.8282C4.63578 12.8282 4.78233 12.8574 4.91906 12.914C5.05579 12.9706 5.18002 13.0536 5.28467 13.1583L9.73873 17.6123L20.9428 6.41015C21.1541 6.19881 21.4408 6.08008 21.7397 6.08008C22.0386 6.08008 22.3252 6.19881 22.5365 6.41015C22.7479 6.6215 22.8666 6.90814 22.8666 7.20703C22.8666 7.50592 22.7479 7.79256 22.5365 8.0039L22.5347 8.00203Z" fill="white"/>
</svg>
