<svg width="32" height="31" viewBox="0 0 32 31" fill="none" xmlns="http://www.w3.org/2000/svg">
<path d="M25.4753 15.1995C25.4761 15.4928 25.4009 15.7812 25.2571 16.0368C25.1133 16.2924 24.9058 16.5065 24.6548 16.6581L9.09932 26.1741C8.83706 26.3347 8.53669 26.4223 8.22922 26.428C7.92174 26.4337 7.61833 26.3572 7.3503 26.2065C7.08483 26.058 6.86368 25.8416 6.7096 25.5793C6.55553 25.3171 6.47408 25.0186 6.47363 24.7144V5.68463C6.47408 5.38048 6.55553 5.08194 6.7096 4.8197C6.86368 4.55746 7.08483 4.341 7.3503 4.19257C7.61833 4.0418 7.92174 3.96531 8.22922 3.971C8.53669 3.97669 8.83706 4.06436 9.09932 4.22496L24.6548 13.7409C24.9058 13.8926 25.1133 14.1066 25.2571 14.3622C25.4009 14.6178 25.4761 14.9063 25.4753 15.1995Z" fill="#EC650A"/>
</svg>
