<svg width="14" height="15" viewBox="0 0 14 15" fill="none" xmlns="http://www.w3.org/2000/svg">
<path d="M12.716 7.59934C12.7164 7.74326 12.6795 7.88482 12.6089 8.01026C12.5383 8.1357 12.4365 8.24074 12.3133 8.31517L4.67922 12.9853C4.55051 13.0641 4.4031 13.1071 4.2522 13.1099C4.10131 13.1127 3.9524 13.0752 3.82086 13.0012C3.69058 12.9283 3.58205 12.8221 3.50643 12.6934C3.43081 12.5647 3.39084 12.4182 3.39062 12.2689V2.92976C3.39084 2.78049 3.43081 2.63398 3.50643 2.50528C3.58205 2.37659 3.69058 2.27035 3.82086 2.19751C3.9524 2.12351 4.10131 2.08597 4.2522 2.08877C4.4031 2.09156 4.55051 2.13459 4.67922 2.2134L12.3133 6.88351C12.4365 6.95794 12.5383 7.06298 12.6089 7.18842C12.6795 7.31385 12.7164 7.45542 12.716 7.59934Z" fill="white"/>
</svg>
