<svg width="19" height="19" viewBox="0 0 19 19" fill="none" xmlns="http://www.w3.org/2000/svg">
<path d="M16.0654 5.77377L12.145 1.85336C12.067 1.77524 11.9744 1.71327 11.8724 1.67099C11.7704 1.62871 11.6611 1.60694 11.5507 1.60693H4.82996C4.45861 1.60693 4.10248 1.75445 3.8399 2.01703C3.57732 2.27961 3.42981 2.63574 3.42981 3.00708V15.3284C3.42981 15.6997 3.57732 16.0558 3.8399 16.3184C4.10248 16.581 4.45861 16.7285 4.82996 16.7285H14.911C15.2824 16.7285 15.6385 16.581 15.9011 16.3184C16.1636 16.0558 16.3112 15.6997 16.3112 15.3284V6.36743C16.3111 6.1448 16.2228 5.93128 16.0654 5.77377ZM12.1107 4.1972L13.7209 5.80737H12.1107V4.1972ZM5.10999 15.0483V3.28711H10.4305V6.64746C10.4305 6.87027 10.5191 7.08395 10.6766 7.24149C10.8341 7.39904 11.0478 7.48755 11.2706 7.48755H14.631V15.0483H5.10999ZM12.9508 9.44775C12.9508 9.67056 12.8623 9.88424 12.7047 10.0418C12.5472 10.1993 12.3335 10.2878 12.1107 10.2878H7.63025C7.40744 10.2878 7.19376 10.1993 7.03622 10.0418C6.87867 9.88424 6.79016 9.67056 6.79016 9.44775C6.79016 9.22495 6.87867 9.01127 7.03622 8.85372C7.19376 8.69617 7.40744 8.60767 7.63025 8.60767H12.1107C12.3335 8.60767 12.5472 8.69617 12.7047 8.85372C12.8623 9.01127 12.9508 9.22495 12.9508 9.44775ZM12.9508 12.248C12.9508 12.4709 12.8623 12.6845 12.7047 12.8421C12.5472 12.9996 12.3335 13.0881 12.1107 13.0881H7.63025C7.40744 13.0881 7.19376 12.9996 7.03622 12.8421C6.87867 12.6845 6.79016 12.4709 6.79016 12.248C6.79016 12.0252 6.87867 11.8116 7.03622 11.654C7.19376 11.4965 7.40744 11.408 7.63025 11.408H12.1107C12.3335 11.408 12.5472 11.4965 12.7047 11.654C12.8623 11.8116 12.9508 12.0252 12.9508 12.248Z" fill="white"/>
</svg>
