<svg width="17" height="16" viewBox="0 0 17 16" fill="none" xmlns="http://www.w3.org/2000/svg">
<path d="M14.3749 4.20127L12.2307 2.05703C12.1182 1.94387 11.9844 1.85414 11.837 1.79306C11.6896 1.73197 11.5316 1.70074 11.372 1.70118H3.80006C3.47795 1.70118 3.16903 1.82913 2.94127 2.0569C2.7135 2.28467 2.58554 2.59359 2.58554 2.9157V12.6319C2.58554 12.954 2.7135 13.2629 2.94127 13.4907C3.16903 13.7185 3.47795 13.8464 3.80006 13.8464H13.5163C13.8384 13.8464 14.1473 13.7185 14.375 13.4907C14.6028 13.2629 14.7308 12.954 14.7308 12.6319V5.05994C14.7312 4.90039 14.7 4.74234 14.6389 4.59495C14.5778 4.44755 14.4881 4.31374 14.3749 4.20127ZM10.8443 12.389H6.47202V9.71703H10.8443V12.389ZM13.2733 12.389H12.3017V9.47413C12.3017 9.15201 12.1738 8.8431 11.946 8.61533C11.7182 8.38756 11.4093 8.2596 11.0872 8.2596H6.22911C5.907 8.2596 5.59808 8.38756 5.37031 8.61533C5.14255 8.8431 5.01459 9.15201 5.01459 9.47413V12.389H4.04297V3.1586H11.2694L13.2733 5.16257V12.389ZM10.8443 5.10184C10.8443 5.29511 10.7675 5.48046 10.6309 5.61712C10.4942 5.75378 10.3089 5.83056 10.1156 5.83056H6.71492C6.52165 5.83056 6.3363 5.75378 6.19964 5.61712C6.06298 5.48046 5.98621 5.29511 5.98621 5.10184C5.98621 4.90857 6.06298 4.72322 6.19964 4.58656C6.3363 4.4499 6.52165 4.37313 6.71492 4.37313H10.1156C10.3089 4.37313 10.4942 4.4499 10.6309 4.58656C10.7675 4.72322 10.8443 4.90857 10.8443 5.10184Z" fill="white"/>
</svg>
