<svg width="21" height="21" viewBox="0 0 21 21" fill="none" xmlns="http://www.w3.org/2000/svg">
<path d="M15.4917 14.4559L18.9976 17.9611L17.8394 19.1193L14.3342 15.6134C13.03 16.6589 11.4078 17.2275 9.7363 17.2252C5.66963 17.2252 2.36914 13.9247 2.36914 9.858C2.36914 5.79133 5.66963 2.49084 9.7363 2.49084C13.803 2.49084 17.1035 5.79133 17.1035 9.858C17.1058 11.5295 16.5372 13.1517 15.4917 14.4559ZM13.8496 13.8485C14.8885 12.7802 15.4687 11.3482 15.4663 9.858C15.4663 6.69176 12.9017 4.12799 9.7363 4.12799C6.57006 4.12799 4.00629 6.69176 4.00629 9.858C4.00629 13.0234 6.57006 15.588 9.7363 15.588C11.2265 15.5904 12.6585 15.0102 13.7268 13.9713L13.8496 13.8485Z" fill="url(#paint0_linear_179_653)"/>
<defs>
<linearGradient id="paint0_linear_179_653" x1="0.584407" y1="1.05435" x2="20.1294" y2="20.0335" gradientUnits="userSpaceOnUse">
<stop stop-color="#EC6106"/>
<stop offset="1" stop-color="#EB660B"/>
</linearGradient>
</defs>
</svg>
