<svg width="22" height="21" viewBox="0 0 22 21" fill="none" xmlns="http://www.w3.org/2000/svg">
<g opacity="0.4">
<path d="M19.0983 2.30617C18.9365 2.14451 18.7346 2.0289 18.5133 1.97124C18.292 1.91359 18.0593 1.91597 17.8392 1.97814H17.8272L2.39548 6.66055C2.14495 6.73275 1.92228 6.87938 1.75697 7.08099C1.59166 7.2826 1.49151 7.52969 1.4698 7.78951C1.44809 8.04932 1.50584 8.30961 1.6354 8.53586C1.76496 8.76211 1.96022 8.94365 2.19529 9.05643L9.02273 12.3817L12.3432 19.2051C12.4465 19.4255 12.6107 19.6118 12.8164 19.7418C13.0221 19.8719 13.2608 19.9404 13.5041 19.9392C13.5411 19.9392 13.5781 19.9376 13.6151 19.9344C13.8747 19.9133 14.1217 19.8134 14.3229 19.648C14.5241 19.4826 14.6698 19.2596 14.7407 19.009L19.4199 3.57727C19.4199 3.57325 19.4199 3.56923 19.4199 3.56521C19.4829 3.34569 19.4863 3.11336 19.4297 2.89209C19.3732 2.67082 19.2588 2.46859 19.0983 2.30617ZM13.5114 18.6407L13.5074 18.652V18.6464L10.2866 12.0296L14.1457 8.17044C14.2613 8.04883 14.3247 7.88691 14.3226 7.71919C14.3204 7.55147 14.2528 7.39123 14.1342 7.27262C14.0156 7.15402 13.8554 7.08644 13.6877 7.08429C13.5199 7.08214 13.358 7.1456 13.2364 7.26113L9.37729 11.1203L2.75807 7.89949H2.75245H2.7637L18.1882 3.21628L13.5114 18.6407Z" fill="black"/>
</g>
</svg>
