<svg width="15" height="16" viewBox="0 0 15 16" fill="none" xmlns="http://www.w3.org/2000/svg">
<g clip-path="url(#clip0_527_567)">
<path d="M13.3089 2.23732C13.1636 2.09192 12.9821 1.9879 12.7832 1.93596C12.5843 1.88402 12.3751 1.88604 12.1772 1.94181L12.1645 1.94586L1.06655 5.31034C0.841467 5.37563 0.641531 5.50775 0.493219 5.6892C0.344907 5.87065 0.255218 6.09288 0.236031 6.32645C0.216844 6.56002 0.269064 6.79391 0.385775 6.99713C0.502487 7.20036 0.678181 7.36333 0.889589 7.46447L5.72524 9.821L8.07946 14.6584C8.17229 14.8558 8.31957 15.0226 8.50397 15.1392C8.68837 15.2558 8.90222 15.3173 9.12038 15.3165C9.15334 15.3165 9.18688 15.3165 9.22042 15.3124C9.45462 15.2944 9.67762 15.2049 9.85925 15.0559C10.0409 14.907 10.1724 14.7058 10.2359 14.4797L13.6004 3.38175C13.6021 3.37763 13.6034 3.37337 13.6044 3.36903C13.6602 3.17115 13.6622 2.96198 13.6103 2.76306C13.5583 2.56415 13.4543 2.38267 13.3089 2.23732ZM9.07411 13.5261L7.08653 9.44106L9.74666 6.78382C9.81121 6.71927 9.86242 6.64264 9.89735 6.5583C9.93229 6.47396 9.95027 6.38357 9.95027 6.29228C9.95027 6.20099 9.93229 6.1106 9.89735 6.02626C9.86242 5.94192 9.81121 5.86528 9.74666 5.80073C9.68211 5.73618 9.60548 5.68498 9.52114 5.65004C9.4368 5.61511 9.34641 5.59713 9.25512 5.59713C9.16383 5.59713 9.07344 5.61511 8.9891 5.65004C8.90476 5.68498 8.82812 5.73618 8.76357 5.80073L6.10344 8.46086L2.02014 6.47213L12.1443 3.40199L9.07411 13.5261Z" fill="white"/>
</g>
<defs>
<clipPath id="clip0_527_567">
<rect width="14.8042" height="14.8042" fill="white" transform="translate(0 0.742188)"/>
</clipPath>
</defs>
</svg>
