<svg width="17" height="17" viewBox="0 0 17 17" fill="none" xmlns="http://www.w3.org/2000/svg">
<path d="M8.90051 5.43855C8.30717 5.43855 7.72715 5.61449 7.2338 5.94414C6.74045 6.27378 6.35593 6.74232 6.12887 7.2905C5.90181 7.83867 5.8424 8.44187 5.95815 9.02382C6.07391 9.60576 6.35963 10.1403 6.77919 10.5599C7.19875 10.9794 7.7333 11.2651 8.31524 11.3809C8.89718 11.4967 9.50038 11.4372 10.0486 11.2102C10.5967 10.9831 11.0653 10.5986 11.3949 10.1053C11.7246 9.61191 11.9005 9.03189 11.9005 8.43855C11.8997 7.64315 11.5833 6.88057 11.0209 6.31814C10.4585 5.75571 9.69591 5.43937 8.90051 5.43855ZM8.90051 10.4385C8.50495 10.4385 8.11827 10.3212 7.78937 10.1015C7.46047 9.88172 7.20413 9.56937 7.05275 9.20391C6.90138 8.83846 6.86177 8.43633 6.93894 8.04837C7.01611 7.6604 7.20659 7.30404 7.4863 7.02433C7.766 6.74463 8.12237 6.55415 8.51033 6.47698C8.89829 6.39981 9.30042 6.43941 9.66588 6.59079C10.0313 6.74216 10.3437 6.99851 10.5634 7.32741C10.7832 7.6563 10.9005 8.04298 10.9005 8.43855C10.9005 8.96898 10.6898 9.47769 10.3147 9.85276C9.93965 10.2278 9.43094 10.4385 8.90051 10.4385ZM15.7718 7.13917C15.7578 7.06876 15.7289 7.00218 15.687 6.94394C15.645 6.8857 15.591 6.83718 15.5286 6.80167L13.6643 5.73917L13.6568 3.63792C13.6565 3.56555 13.6406 3.4941 13.6101 3.42849C13.5795 3.36288 13.5351 3.30469 13.4799 3.25792C12.8036 2.68586 12.0248 2.24746 11.1849 1.96605C11.1187 1.94366 11.0486 1.93537 10.9791 1.94172C10.9096 1.94808 10.8421 1.96892 10.7811 2.00292L8.90051 3.05417L7.01801 2.00105C6.95698 1.96686 6.88946 1.94585 6.8198 1.93939C6.75015 1.93293 6.67991 1.94116 6.61364 1.96355C5.77435 2.24702 4.99644 2.68709 4.32113 3.26042C4.26599 3.30712 4.22162 3.36522 4.19109 3.43071C4.16055 3.4962 4.14458 3.56754 4.14426 3.6398L4.13488 5.74292L2.27051 6.80542C2.20814 6.84093 2.15414 6.88945 2.11219 6.94769C2.07023 7.00593 2.04131 7.07251 2.02738 7.14292C1.85676 8.00035 1.85676 8.883 2.02738 9.74042C2.04131 9.81083 2.07023 9.87742 2.11219 9.93565C2.15414 9.99389 2.20814 10.0424 2.27051 10.0779L4.13488 11.1404L4.14238 13.2417C4.14261 13.314 4.15854 13.3855 4.18908 13.4511C4.21962 13.5167 4.26403 13.5749 4.31926 13.6217C4.99555 14.1937 5.77436 14.6321 6.61426 14.9135C6.6804 14.9359 6.7505 14.9442 6.82004 14.9379C6.88958 14.9315 6.95702 14.9107 7.01801 14.8767L8.90051 13.8229L10.783 14.876C10.8575 14.9176 10.9415 14.9391 11.0268 14.9385C11.0814 14.9385 11.1356 14.9297 11.1874 14.9123C12.0266 14.6292 12.8045 14.1896 13.4799 13.6167C13.535 13.57 13.5794 13.5119 13.6099 13.4464C13.6405 13.3809 13.6564 13.3096 13.6568 13.2373L13.6661 11.1342L15.5305 10.0717C15.5929 10.0362 15.6469 9.98764 15.6888 9.9294C15.7308 9.87117 15.7597 9.80458 15.7736 9.73417C15.9433 8.87743 15.9427 7.99567 15.7718 7.13917ZM14.8343 9.32105L13.0486 10.3367C12.9704 10.3812 12.9056 10.4459 12.8611 10.5242C12.8249 10.5867 12.7868 10.6529 12.748 10.7154C12.6984 10.7942 12.672 10.8854 12.6718 10.9785L12.6624 12.9942C12.1824 13.3711 11.6477 13.6725 11.0768 13.8879L9.27551 12.8842C9.20073 12.8428 9.1166 12.8213 9.03113 12.8217H9.01926C8.94363 12.8217 8.86739 12.8217 8.79176 12.8217C8.70232 12.8194 8.61388 12.841 8.53551 12.8842L6.73301 13.8904C6.16083 13.6766 5.62465 13.3767 5.14301 13.001L5.13613 10.9885C5.13583 10.8952 5.10941 10.8039 5.05989 10.7248C5.02114 10.6623 4.98301 10.5998 4.94738 10.5335C4.90321 10.4541 4.83844 10.388 4.75988 10.3423L2.97238 9.32417C2.87988 8.73906 2.87988 8.14304 2.97238 7.55792L4.75488 6.54042C4.83312 6.49594 4.8979 6.43116 4.94238 6.35292C4.97863 6.29042 5.01676 6.22417 5.05551 6.16167C5.10511 6.08286 5.13154 5.99167 5.13176 5.89855L5.14113 3.88292C5.62109 3.50601 6.1558 3.20462 6.72676 2.98917L8.52551 3.99292C8.60379 4.03631 8.69229 4.0579 8.78176 4.05542C8.85739 4.05542 8.93364 4.05542 9.00926 4.05542C9.09871 4.05766 9.18714 4.03609 9.26551 3.99292L11.068 2.98667C11.6402 3.20047 12.1764 3.50038 12.658 3.87605L12.6649 5.88855C12.6652 5.98186 12.6916 6.07322 12.7411 6.1523C12.7799 6.2148 12.818 6.2773 12.8536 6.34355C12.8978 6.42299 12.9626 6.48906 13.0411 6.5348L14.8286 7.55292C14.9224 8.13849 14.9234 8.73515 14.8318 9.32105H14.8343Z" fill="white"/>
</svg>
