<svg width="23" height="15" viewBox="0 0 23 15" fill="none" xmlns="http://www.w3.org/2000/svg">
<path d="M2.01165 14.7325H15.5622C16.2397 14.7325 16.7941 14.1825 16.7941 13.5104C16.7941 12.8382 16.2397 12.2883 15.5622 12.2883H2.01165C1.33413 12.2883 0.779785 12.8382 0.779785 13.5104C0.779785 14.1825 1.33413 14.7325 2.01165 14.7325ZM2.01165 8.62201H11.8666C12.5441 8.62201 13.0985 8.07207 13.0985 7.39992C13.0985 6.72777 12.5441 6.17783 11.8666 6.17783H2.01165C1.33413 6.17783 0.779785 6.72777 0.779785 7.39992C0.779785 8.07207 1.33413 8.62201 2.01165 8.62201ZM0.779785 1.28947C0.779785 1.96162 1.33413 2.51156 2.01165 2.51156H15.5622C16.2397 2.51156 16.7941 1.96162 16.7941 1.28947C16.7941 0.617323 16.2397 0.0673828 15.5622 0.0673828H2.01165C1.33413 0.0673828 0.779785 0.617323 0.779785 1.28947ZM22.0911 10.9195L18.5433 7.39992L22.0911 3.8803C22.2051 3.76716 22.2956 3.63284 22.3573 3.48501C22.419 3.33718 22.4508 3.17874 22.4508 3.01873C22.4508 2.85872 22.419 2.70028 22.3573 2.55245C22.2956 2.40462 22.2051 2.2703 22.0911 2.15716C21.977 2.04401 21.8416 1.95426 21.6926 1.89303C21.5436 1.8318 21.3839 1.80028 21.2226 1.80028C21.0613 1.80028 20.9016 1.8318 20.7526 1.89303C20.6036 1.95426 20.4682 2.04401 20.3542 2.15716L15.9318 6.54446C15.8176 6.65752 15.727 6.79182 15.6651 6.93966C15.6033 7.0875 15.5715 7.24598 15.5715 7.40603C15.5715 7.56609 15.6033 7.72457 15.6651 7.87241C15.727 8.02025 15.8176 8.15455 15.9318 8.26761L20.3542 12.6549C20.8346 13.1315 21.6107 13.1315 22.0911 12.6549C22.5592 12.1783 22.5715 11.3962 22.0911 10.9195Z" fill="#EC650A"/>
</svg>
