<svg width="13" height="9" viewBox="0 0 13 9" fill="none" xmlns="http://www.w3.org/2000/svg">
<path d="M0.900781 8.70884H8.78984C9.18429 8.70884 9.50703 8.38867 9.50703 7.99735C9.50703 7.60602 9.18429 7.28585 8.78984 7.28585H0.900781C0.506328 7.28585 0.183594 7.60602 0.183594 7.99735C0.183594 8.38867 0.506328 8.70884 0.900781 8.70884ZM0.900781 5.15136H6.63828C7.03273 5.15136 7.35547 4.83119 7.35547 4.43987C7.35547 4.04855 7.03273 3.72837 6.63828 3.72837H0.900781C0.506328 3.72837 0.183594 4.04855 0.183594 4.43987C0.183594 4.83119 0.506328 5.15136 0.900781 5.15136ZM0.183594 0.882394C0.183594 1.27372 0.506328 1.59389 0.900781 1.59389H8.78984C9.18429 1.59389 9.50703 1.27372 9.50703 0.882394C9.50703 0.491071 9.18429 0.170898 8.78984 0.170898H0.900781C0.506328 0.170898 0.183594 0.491071 0.183594 0.882394ZM12.5909 6.48898L10.5254 4.43987L12.5909 2.39076C12.6573 2.32489 12.71 2.24669 12.7459 2.16063C12.7819 2.07456 12.8004 1.98232 12.8004 1.88916C12.8004 1.796 12.7819 1.70376 12.7459 1.61769C12.71 1.53163 12.6573 1.45343 12.5909 1.38756C12.5245 1.32168 12.4457 1.26943 12.359 1.23378C12.2722 1.19813 12.1792 1.17978 12.0853 1.17978C11.9914 1.17978 11.8984 1.19813 11.8117 1.23378C11.7249 1.26943 11.6461 1.32168 11.5797 1.38756L9.005 3.94182C8.93851 4.00765 8.88577 4.08583 8.84978 4.1719C8.81379 4.25798 8.79526 4.35024 8.79526 4.44343C8.79526 4.53661 8.81379 4.62888 8.84978 4.71495C8.88577 4.80102 8.93851 4.87921 9.005 4.94503L11.5797 7.4993C11.8594 7.77678 12.3112 7.77678 12.5909 7.4993C12.8635 7.22182 12.8706 6.76646 12.5909 6.48898Z" fill="url(#paint0_linear_214_23157)"/>
<defs>
<linearGradient id="paint0_linear_214_23157" x1="-1.17056" y1="-0.566672" x2="8.24833" y2="12.9489" gradientUnits="userSpaceOnUse">
<stop stop-color="white"/>
<stop offset="1" stop-color="#FFECE2"/>
</linearGradient>
</defs>
</svg>
