<svg width="13" height="13" viewBox="0 0 13 13" fill="none" xmlns="http://www.w3.org/2000/svg">
<path d="M6.21242 10.2448L3.20103 12.0256C3.068 12.1087 2.92892 12.1443 2.78379 12.1324C2.63867 12.1205 2.51168 12.073 2.40283 11.9899C2.29399 11.9068 2.20933 11.8031 2.14886 11.6787C2.08839 11.5538 2.0763 11.4142 2.11258 11.2598L2.91078 7.89414L0.244067 5.63255C0.123128 5.5257 0.047662 5.40389 0.017669 5.26713C-0.0128077 5.13084 -0.00385822 4.9974 0.0445175 4.86681C0.0928932 4.73622 0.165457 4.62937 0.262208 4.54627C0.35896 4.46317 0.491993 4.40974 0.661308 4.386L4.18064 4.08327L5.54121 0.913472C5.60168 0.77101 5.69553 0.664162 5.82276 0.592931C5.9495 0.5217 6.07939 0.486084 6.21242 0.486084C6.34545 0.486084 6.47559 0.5217 6.60281 0.592931C6.72956 0.664162 6.82316 0.77101 6.88363 0.913472L8.2442 4.08327L11.7635 4.386C11.9328 4.40974 12.0659 4.46317 12.1626 4.54627C12.2594 4.62937 12.3319 4.73622 12.3803 4.86681C12.4287 4.9974 12.4379 5.13084 12.4079 5.26713C12.3774 5.40389 12.3017 5.5257 12.1808 5.63255L9.51406 7.89414L10.3123 11.2598C10.3485 11.4142 10.3365 11.5538 10.276 11.6787C10.2155 11.8031 10.1309 11.9068 10.022 11.9899C9.91316 12.073 9.78618 12.1205 9.64105 12.1324C9.49592 12.1443 9.35684 12.1087 9.22381 12.0256L6.21242 10.2448Z" fill="#FFBA07"/>
</svg>
