<svg width="24" height="24" viewBox="0 0 24 24" fill="none" xmlns="http://www.w3.org/2000/svg">
<path d="M21.75 3.75C21.75 3.94891 21.671 4.13968 21.5303 4.28033C21.3897 4.42098 21.1989 4.5 21 4.5H5.25C5.05109 4.5 4.86032 4.42098 4.71967 4.28033C4.57902 4.13968 4.5 3.94891 4.5 3.75C4.5 3.55109 4.57902 3.36032 4.71967 3.21967C4.86032 3.07902 5.05109 3 5.25 3H21C21.1989 3 21.3897 3.07902 21.5303 3.21967C21.671 3.36032 21.75 3.55109 21.75 3.75ZM17.25 6.75C17.25 6.55109 17.171 6.36032 17.0303 6.21967C16.8897 6.07902 16.6989 6 16.5 6H3C2.80109 6 2.61032 6.07902 2.46967 6.21967C2.32902 6.36032 2.25 6.55109 2.25 6.75C2.25 6.94891 2.32902 7.13968 2.46967 7.28033C2.61032 7.42098 2.80109 7.5 3 7.5H16.5C16.6989 7.5 16.8897 7.42098 17.0303 7.28033C17.171 7.13968 17.25 6.94891 17.25 6.75ZM15.75 9.75C15.75 9.55109 15.671 9.36032 15.5303 9.21967C15.3897 9.07902 15.1989 9 15 9H5.25C5.05109 9 4.86032 9.07902 4.71967 9.21967C4.57902 9.36032 4.5 9.55109 4.5 9.75C4.5 9.94891 4.57902 10.1397 4.71967 10.2803C4.86032 10.421 5.05109 10.5 5.25 10.5H15C15.1989 10.5 15.3897 10.421 15.5303 10.2803C15.671 10.1397 15.75 9.94891 15.75 9.75ZM17.25 12.75C17.25 12.5511 17.171 12.3603 17.0303 12.2197C16.8897 12.079 16.6989 12 16.5 12H8.25C8.05109 12 7.86032 12.079 7.71967 12.2197C7.57902 12.3603 7.5 12.5511 7.5 12.75C7.5 12.9489 7.57902 13.1397 7.71967 13.2803C7.86032 13.421 8.05109 13.5 8.25 13.5H16.5C16.6989 13.5 16.8897 13.421 17.0303 13.2803C17.171 13.1397 17.25 12.9489 17.25 12.75ZM17.25 15H11.25C11.0511 15 10.8603 15.079 10.7197 15.2197C10.579 15.3603 10.5 15.5511 10.5 15.75C10.5 15.9489 10.579 16.1397 10.7197 16.2803C10.8603 16.421 11.0511 16.5 11.25 16.5H17.25C17.4489 16.5 17.6397 16.421 17.7803 16.2803C17.921 16.1397 18 15.9489 18 15.75C18 15.5511 17.921 15.3603 17.7803 15.2197C17.6397 15.079 17.4489 15 17.25 15ZM15 18H12C11.8011 18 11.6103 18.079 11.4697 18.2197C11.329 18.3603 11.25 18.5511 11.25 18.75C11.25 18.9489 11.329 19.1397 11.4697 19.2803C11.6103 19.421 11.8011 19.5 12 19.5H15C15.1989 19.5 15.3897 19.421 15.5303 19.2803C15.671 19.1397 15.75 18.9489 15.75 18.75C15.75 18.5511 15.671 18.3603 15.5303 18.2197C15.3897 18.079 15.1989 18 15 18ZM12 21H10.5C10.3011 21 10.1103 21.079 9.96967 21.2197C9.82902 21.3603 9.75 21.5511 9.75 21.75C9.75 21.9489 9.82902 22.1397 9.96967 22.2803C10.1103 22.421 10.3011 22.5 10.5 22.5H12C12.1989 22.5 12.3897 22.421 12.5303 22.2803C12.671 22.1397 12.75 21.9489 12.75 21.75C12.75 21.5511 12.671 21.3603 12.5303 21.2197C12.3897 21.079 12.1989 21 12 21Z" fill="white"/>
</svg>
