<svg width="19" height="19" viewBox="0 0 19 19" fill="none" xmlns="http://www.w3.org/2000/svg">
<path d="M16.7558 3.87086L9.6942 1.51698C9.51336 1.45593 9.31747 1.45593 9.13663 1.51698L2.07498 3.87086C1.90648 3.92666 1.75872 4.03197 1.65099 4.17304C1.54325 4.3141 1.48055 4.48437 1.47106 4.66162C1.47026 4.67705 1.47026 4.69252 1.47106 4.70796V10.5927C1.47106 10.8268 1.56406 11.0513 1.7296 11.2168C1.89514 11.3824 2.11966 11.4754 2.35377 11.4754C2.58788 11.4754 2.8124 11.3824 2.97794 11.2168C3.14347 11.0513 3.23647 10.8268 3.23647 10.5927V5.93271L4.98055 6.51383C4.43928 7.5499 4.27843 8.74297 4.526 9.88539C4.77357 11.0278 5.41388 12.0473 6.33551 12.7663C5.12946 13.3611 4.10875 14.2739 3.38359 15.4064C3.31829 15.5034 3.27293 15.6125 3.25015 15.7272C3.22737 15.842 3.22763 15.9601 3.2509 16.0747C3.27417 16.1894 3.32 16.2982 3.38573 16.395C3.45145 16.4918 3.53575 16.5745 3.63373 16.6384C3.73171 16.7024 3.84142 16.7461 3.95648 16.7673C4.07153 16.7884 4.18964 16.7865 4.30394 16.7616C4.41824 16.7367 4.52644 16.6893 4.62227 16.6222C4.71809 16.5551 4.79962 16.4696 4.86212 16.3707C5.91181 14.7554 7.57644 13.8292 9.41541 13.8292C11.2544 13.8292 12.919 14.7554 13.9724 16.3707C14.0349 16.4696 14.1164 16.5551 14.2122 16.6222C14.3081 16.6893 14.4163 16.7367 14.5306 16.7616C14.6449 16.7865 14.763 16.7884 14.878 16.7673C14.9931 16.7461 15.1028 16.7024 15.2008 16.6384C15.2988 16.5745 15.3831 16.4918 15.4488 16.395C15.5145 16.2982 15.5603 16.1894 15.5836 16.0747C15.6069 15.9601 15.6071 15.842 15.5844 15.7272C15.5616 15.6125 15.5162 15.5034 15.4509 15.4064C14.7251 14.2726 13.703 13.3589 12.4953 12.7641C13.4169 12.0451 14.0573 11.0256 14.3048 9.88319C14.5524 8.74076 14.3916 7.54769 13.8503 6.51162L16.7558 5.54285C16.9314 5.48412 17.084 5.3717 17.1922 5.22148C17.3003 5.07126 17.3585 4.89085 17.3585 4.70575C17.3585 4.52065 17.3003 4.34024 17.1922 4.19002C17.084 4.0398 16.9314 3.92738 16.7558 3.86865V3.87086ZM9.41541 3.28239L13.6855 4.70796L9.41541 6.13132L5.149 4.70796L9.41541 3.28239ZM12.652 8.82725C12.6521 9.32998 12.5351 9.82581 12.3102 10.2755C12.0854 10.7251 11.7589 11.1162 11.3566 11.4177C10.9543 11.7192 10.4874 11.9229 9.99271 12.0125C9.49805 12.1022 8.98929 12.0754 8.50679 11.9343C8.02428 11.7932 7.58128 11.5416 7.21291 11.1995C6.84454 10.8574 6.56093 10.4341 6.38455 9.96337C6.20818 9.49259 6.14389 8.98721 6.1968 8.48728C6.2497 7.98734 6.41833 7.5066 6.68932 7.08317L9.13663 7.89894C9.31751 7.95977 9.51332 7.95977 9.6942 7.89894L12.1415 7.08317C12.4753 7.60359 12.6525 8.20898 12.652 8.82725Z" fill="white"/>
</svg>
