<svg width="12" height="12" viewBox="0 0 12 12" fill="none" xmlns="http://www.w3.org/2000/svg">
<path d="M9.37921 4.01877H8.03754V3.01251C8.03754 2.47876 7.8255 1.96687 7.44809 1.58945C7.07067 1.21203 6.55878 1 6.02502 1C5.49127 1 4.97938 1.21203 4.60196 1.58945C4.22454 1.96687 4.01251 2.47876 4.01251 3.01251V4.01877H2.67084C2.49292 4.01877 2.32229 4.08945 2.19648 4.21525C2.07068 4.34106 2 4.51169 2 4.68961V9.38547C2 9.56338 2.07068 9.73401 2.19648 9.85982C2.32229 9.98563 2.49292 10.0563 2.67084 10.0563H9.37921C9.55713 10.0563 9.72776 9.98563 9.85356 9.85982C9.97937 9.73401 10.05 9.56338 10.05 9.38547V4.68961C10.05 4.51169 9.97937 4.34106 9.85356 4.21525C9.72776 4.08945 9.55713 4.01877 9.37921 4.01877ZM4.68335 3.01251C4.68335 2.65668 4.8247 2.31542 5.07632 2.0638C5.32793 1.81219 5.66919 1.67084 6.02502 1.67084C6.38086 1.67084 6.72212 1.81219 6.97373 2.0638C7.22534 2.31542 7.3667 2.65668 7.3667 3.01251V4.01877H4.68335V3.01251Z" fill="#C2C2C2"/>
</svg>
